<svg xmlns="http://www.w3.org/2000/svg" xmlns:xlink="http://www.w3.org/1999/xlink" viewBox="0 0 1920 1080"><defs><style>.cls-1,.cls-10,.cls-12,.cls-15,.cls-19,.cls-21,.cls-25,.cls-30,.cls-33,.cls-35,.cls-38,.cls-41,.cls-44,.cls-47,.cls-54,.cls-6,.cls-61,.cls-63{fill:none;}.cls-2{fill:#f7f7f7;}.cls-3{clip-path:url(#clip-path);}.cls-4{opacity:0.26;}.cls-5{clip-path:url(#clip-path-3);}.cls-10,.cls-12,.cls-15,.cls-19,.cls-21,.cls-25,.cls-6{stroke:#808285;stroke-linejoin:round;}.cls-10,.cls-12,.cls-15,.cls-19,.cls-21,.cls-25,.cls-30,.cls-33,.cls-35,.cls-38,.cls-41,.cls-44,.cls-47,.cls-54,.cls-6,.cls-61,.cls-63{stroke-linecap:round;}.cls-6{stroke-width:7px;}.cls-7{clip-path:url(#clip-path-4);}.cls-8{opacity:0.27;}.cls-9{clip-path:url(#clip-path-5);}.cls-10{stroke-width:3.743px;}.cls-11{clip-path:url(#clip-path-6);}.cls-12{stroke-width:4.755px;}.cls-13{opacity:0.14;}.cls-14{clip-path:url(#clip-path-7);}.cls-15{stroke-width:3px;}.cls-16{opacity:0.36999;}.cls-17{clip-path:url(#clip-path-8);}.cls-18{clip-path:url(#clip-path-9);}.cls-19{stroke-width:2px;}.cls-20{clip-path:url(#clip-path-10);}.cls-21{stroke-width:5.689px;}.cls-22{clip-path:url(#clip-path-11);}.cls-23{opacity:0.17;}.cls-24{clip-path:url(#clip-path-12);}.cls-25{stroke-width:4px;}.cls-26{opacity:0.08;}.cls-27{clip-path:url(#clip-path-13);}.cls-28{opacity:0.39;}.cls-29{clip-path:url(#clip-path-14);}.cls-30,.cls-33,.cls-35,.cls-38,.cls-41,.cls-44,.cls-47,.cls-54,.cls-61,.cls-63{stroke:#f7ab4f;stroke-miterlimit:10;}.cls-30{stroke-width:13px;}.cls-31{opacity:0.61;}.cls-32{clip-path:url(#clip-path-15);}.cls-33{stroke-width:14px;}.cls-34{clip-path:url(#clip-path-16);}.cls-35{stroke-width:16.53px;}.cls-36{opacity:0.48;}.cls-37{clip-path:url(#clip-path-17);}.cls-38{stroke-width:9.736px;}.cls-39{opacity:0.5;}.cls-40{clip-path:url(#clip-path-18);}.cls-41{stroke-width:11px;}.cls-42{opacity:0.2;}.cls-43{clip-path:url(#clip-path-19);}.cls-44{stroke-width:8.728px;}.cls-45{clip-path:url(#clip-path-20);}.cls-46{clip-path:url(#clip-path-21);}.cls-47{stroke-width:7.817px;}.cls-48{clip-path:url(#clip-path-22);}.cls-49{clip-path:url(#clip-path-23);}.cls-50{clip-path:url(#clip-path-24);}.cls-51{clip-path:url(#clip-path-25);}.cls-52{clip-path:url(#clip-path-26);}.cls-53{clip-path:url(#clip-path-27);}.cls-54{stroke-width:12px;}.cls-55{clip-path:url(#clip-path-28);}.cls-56{clip-path:url(#clip-path-29);}.cls-57{clip-path:url(#clip-path-30);}.cls-58{clip-path:url(#clip-path-31);}.cls-59{clip-path:url(#clip-path-32);}.cls-60{clip-path:url(#clip-path-33);}.cls-61{stroke-width:8.337px;}.cls-62{clip-path:url(#clip-path-34);}.cls-63{stroke-width:9.955px;}</style><clipPath id="clip-path"><rect class="cls-1" x="-141" y="638.93799" width="2207.90991" height="442.06201"/></clipPath><clipPath id="clip-path-3"><rect class="cls-1" x="-150" y="661.93799" width="353.75" height="111.517"/></clipPath><clipPath id="clip-path-4"><rect class="cls-1" x="1676.46997" y="691.845" width="353.75" height="111.51599"/></clipPath><clipPath id="clip-path-5"><rect class="cls-1" x="222.73099" y="833.589" width="197.54202" height="63.355"/></clipPath><clipPath id="clip-path-6"><rect class="cls-1" x="1711.09998" y="871.052" width="171.73999" height="56.49699"/></clipPath><clipPath id="clip-path-7"><rect class="cls-1" x="619.82898" y="993.4628" width="136.79901" height="44.1133"/></clipPath><clipPath id="clip-path-8"><rect class="cls-1" x="1495.59998" y="928.938" width="136.80005" height="44.114"/></clipPath><clipPath id="clip-path-9"><rect class="cls-1" x="908.73999" y="1026.7925" width="98.26001" height="31.5385"/></clipPath><clipPath id="clip-path-10"><rect class="cls-1" x="-64.8504" y="927.396" width="290.8504" height="92.1235"/></clipPath><clipPath id="clip-path-11"><rect class="cls-1" x="1776" y="989.8766" width="290.8501" height="92.12345"/></clipPath><clipPath id="clip-path-12"><rect class="cls-1" x="319" y="954.944" width="172.94598" height="54.4943"/></clipPath><clipPath id="clip-path-13"><rect class="cls-1" x="1584.05005" y="996.029" width="172.94995" height="54.4943"/></clipPath><clipPath id="clip-path-14"><rect class="cls-1" x="16.75" y="772.36801" width="188.81699" height="52.13998"/></clipPath><clipPath id="clip-path-15"><rect class="cls-1" x="-46" y="1012.0195" width="214.89401" height="54"/></clipPath><clipPath id="clip-path-16"><rect class="cls-1" x="1881.56006" y="629.93799" width="192.34985" height="55.67001"/></clipPath><clipPath id="clip-path-17"><rect class="cls-1" x="1729" y="980.729" width="147.43005" height="40.5471"/></clipPath><clipPath id="clip-path-18"><rect class="cls-1" x="1649.21997" y="838.33701" width="53.16003" height="29"/></clipPath><clipPath id="clip-path-19"><rect class="cls-1" x="1863.43005" y="876.756" width="47.58997" height="26.728"/></clipPath><clipPath id="clip-path-20"><rect class="cls-1" x="1405.80005" y="1004.2762" width="75.96997" height="30.9999"/></clipPath><clipPath id="clip-path-21"><rect class="cls-1" x="1241" y="1021.6533" width="18.38" height="25.817"/></clipPath><clipPath id="clip-path-22"><rect class="cls-1" x="1166.63" y="1021.6533" width="76.37" height="25.817"/></clipPath><clipPath id="clip-path-23"><rect class="cls-1" x="1152.44995" y="1033.9204" width="36.37" height="25.8171"/></clipPath><clipPath id="clip-path-24"><rect class="cls-1" x="706.44501" y="1031.6533" width="56.36597" height="25.817"/></clipPath><clipPath id="clip-path-25"><rect class="cls-1" x="692.26202" y="1043.1213" width="36.36597" height="25.817"/></clipPath><clipPath id="clip-path-26"><rect class="cls-1" x="428" y="956.52" width="22.96997" height="30.9995"/></clipPath><clipPath id="clip-path-27"><rect class="cls-1" x="437" y="974.576" width="65.96997" height="30.00011"/></clipPath><clipPath id="clip-path-28"><rect class="cls-1" x="1632.12" y="838.33701" width="20.46997" height="29"/></clipPath><clipPath id="clip-path-29"><rect class="cls-1" x="1847.98999" y="876.756" width="18.05005" height="26.728"/></clipPath><clipPath id="clip-path-30"><rect class="cls-1" x="1379.80005" y="1004.2762" width="22.96997" height="30.9999"/></clipPath><clipPath id="clip-path-31"><rect class="cls-1" x="1439.80005" y="1021.3289" width="32.96997" height="31"/></clipPath><clipPath id="clip-path-32"><rect class="cls-1" x="1555.10999" y="856.235" width="142.23999" height="29"/></clipPath><clipPath id="clip-path-33"><rect class="cls-1" x="1852.53003" y="889.508" width="95.96997" height="26.33701"/></clipPath><clipPath id="clip-path-34"><rect class="cls-1" x="166" y="903.82001" width="103.97" height="45.45699"/></clipPath></defs><title>Wallpaper</title><g id="Layer_1" data-name="Layer 1"><rect class="cls-2" x="-9" y="-7" width="1942" height="1104"/></g><g id="Layer_2" data-name="Layer 2"><g class="cls-3"><g class="cls-3"><g class="cls-4"><g class="cls-5"><path class="cls-6" d="M-134.0002,768.95413h-3.5m319.25,0h9.5m-19.25-.161h-60.208a31.1258,31.1258,0,0,0-21.193-51.999c-.611-.035-6.979-.054-7.599-.054m4.632-6.173a31.1518,31.1518,0,0,0-39.81-11.306l.26-.917a37.84009,37.84009,0,0,0-73.749,11.928c0,2.901-.083,6.989.536,9.703.174.763-.219-.745,0,0-1.869-1.37-3.793-1.521-6.093-1.521a25.73529,25.73529,0,0,0-25.735,25.736,25.71959,25.71959,0,0,0,1.339,8.215c-3.463-2.8-6.09-3.724-8.984-3.724a14.92246,14.92246,0,0,0-14.922,14.923,14.88514,14.88514,0,0,0,.888,5.083v.085h-48.362"/></g></g><g class="cls-4"><g class="cls-7"><path class="cls-6" d="M1692.46582,798.861h-3.5m319.25,0h9.5m-19.25-.161h-60.208a31.12583,31.12583,0,0,0-21.19311-51.999c-.61084-.035-6.979-.054-7.59888-.054m4.63208-6.173a31.15185,31.15185,0,0,0-39.81006-11.306l.259-.917a37.83954,37.83954,0,0,0-73.74805,11.928c0,2.901-.083,6.989.536,9.703.174.763-.219-.745,0,0-1.869-1.37-3.793-1.521-6.093-1.521a25.75477,25.75477,0,0,0-24.396,33.951c-3.463-2.8-6.09-3.724-8.984-3.724a14.9331,14.9331,0,0,0-14.03394,20.006v.085h-48.36206"/></g></g><g class="cls-8"><g class="cls-9"><path class="cls-10" d="M407.53027,894.07271h1.871m-170.719,0h-5.08m10.294-.087h32.196a16.64415,16.64415,0,0,1,11.333-27.806c.327-.019,3.732-.029,4.064-.029m-2.477-3.301a16.65658,16.65658,0,0,1,21.288-6.046l-.138-.49a20.2343,20.2343,0,0,1,39.436,6.378,26.85312,26.85312,0,0,1-.286,5.189c-.093.408.117-.398,0,0a5.04279,5.04279,0,0,1,3.258-.813,13.77215,13.77215,0,0,1,13.046,18.155,7.25563,7.25563,0,0,1,4.804-1.992,7.98592,7.98592,0,0,1,7.505,10.699v.045h25.861"/></g></g><g class="cls-8"><g class="cls-11"><path class="cls-12" d="M1724.063,924.17091h-1.58594m144.68494,0h4.305m-8.724-.073h-27.286a14.10678,14.10678,0,0,0-9.605-23.566c-.277-.016-3.16309-.024-3.44409-.024m2.09912-2.798a14.11817,14.11817,0,0,0-18.04211-5.124l.118-.416a17.1492,17.1492,0,0,0-33.423,5.406,22.80863,22.80863,0,0,0,.242,4.398c.0791.346-.099-.338,0,0a4.27274,4.27274,0,0,0-2.761-.689,11.671,11.671,0,0,0-11.05591,15.386,6.14931,6.14931,0,0,0-4.072-1.688,6.76648,6.76648,0,0,0-6.36,9.067v.039H1727.235"/></g></g><g class="cls-13"><g class="cls-14"><path class="cls-15" d="M744.89581,1035.0763h1.233m-112.453,0h-3.347m6.781-.055h21.208a10.48749,10.48749,0,0,1-2.848-7.18,10.80352,10.80352,0,0,1,10.313-10.66c.215-.013,2.458-.019,2.677-.019m-1.632-2.118a11.02857,11.02857,0,0,1,9.249-4.942,11.1613,11.1613,0,0,1,4.774,1.063l-.092-.315a13.30569,13.30569,0,0,1,12.651-8.887,13.156,13.156,0,0,1,13.326,12.98,16.79085,16.79085,0,0,1-.188,3.329c-.061.262.077-.256,0,0a3.39257,3.39257,0,0,1,2.146-.522,8.94972,8.94972,0,0,1,9.065,8.829,8.60972,8.60972,0,0,1-.472,2.819,4.84687,4.84687,0,0,1,3.165-1.278,5.18963,5.18963,0,0,1,5.256,5.12,4.97939,4.97939,0,0,1-.313,1.744v.029h17.035"/></g></g><g class="cls-16"><g class="cls-17"><path class="cls-15" d="M1507.333,970.5517h-1.23291m112.453,0h3.34595m-6.78-.055h-21.208a10.48749,10.48749,0,0,0,2.848-7.18,10.80347,10.80347,0,0,0-10.313-10.66c-.215-.013-2.458-.019-2.677-.019m1.63208-2.118a11.02877,11.02877,0,0,0-9.249-4.942,11.16136,11.16136,0,0,0-4.774,1.063l.092-.315a13.30573,13.30573,0,0,0-12.651-8.887,13.15609,13.15609,0,0,0-13.326,12.98,16.79081,16.79081,0,0,0,.188,3.329c.061.262-.077-.256,0,0a3.39238,3.39238,0,0,0-2.146-.522,8.94967,8.94967,0,0,0-9.06494,8.829,8.61127,8.61127,0,0,0,.47193,2.819,4.84674,4.84674,0,0,0-3.16492-1.278,5.1896,5.1896,0,0,0-5.256,5.12,4.97913,4.97913,0,0,0,.313,1.744v.029h-17.035"/></g></g><g class="cls-13"><g class="cls-18"><path class="cls-19" d="M919.57629,1056.3313h-.833m75.995,0h2.262m-4.583-.036H978.08533a6.68764,6.68764,0,0,0,1.92492-4.671,7.1559,7.1559,0,0,0-6.97-6.933c-.145-.008-1.661-.012-1.809-.012m1.103-1.378a7.53015,7.53015,0,0,0-6.25-3.214,7.79172,7.79172,0,0,0-3.227.691l.062-.205a8.9767,8.9767,0,0,0-8.54907-5.781,8.738,8.738,0,0,0-9.006,8.443,10.52349,10.52349,0,0,0,.12707,2.165c.042.171-.052-.166,0,0a2.365,2.365,0,0,0-1.45007-.339,5.94385,5.94385,0,0,0-6.126,5.743,5.41247,5.41247,0,0,0,.319,1.834,3.35158,3.35158,0,0,0-2.13891-.832,3.44641,3.44641,0,0,0-3.552,3.331,3.15514,3.15514,0,0,0,.21094,1.134v.019h-11.512"/></g></g><g class="cls-13"><g class="cls-20"><path class="cls-21" d="M-50.16159,1015.6751h-2.845m259.442,0h7.72m-15.643-.131h-48.929a25.29442,25.29442,0,0,0-17.223-42.257c-.496-.029-5.671-.044-6.175-.044m3.764-5.017a25.3144,25.3144,0,0,0-32.352-9.188l.211-.745a30.75058,30.75058,0,0,0-59.932,9.693,40.79679,40.79679,0,0,0,.435,7.885c.141.621-.178-.605,0,0a7.67,7.67,0,0,0-4.951-1.235,20.92974,20.92974,0,0,0-19.826,27.59c-2.814-2.275-4.949-3.026-7.301-3.026a12.13474,12.13474,0,0,0-11.405,16.258v.069h-39.302"/></g></g><g class="cls-13"><g class="cls-22"><path class="cls-21" d="M2052.16138,1078.1557h2.845m-259.4419,0h-7.72m15.64295-.131h48.92907a25.2944,25.2944,0,0,1,17.223-42.257c.496-.029,5.67089-.044,6.17492-.044m-3.76391-5.017a25.31431,25.31431,0,0,1,32.35193-9.188l-.21094-.745a30.75059,30.75059,0,0,1,59.932,9.693,40.80231,40.80231,0,0,1-.43506,7.885c-.14112.621.178-.605,0,0a7.67,7.67,0,0,1,4.95092-1.235,20.92935,20.92935,0,0,1,19.82593,27.59c2.814-2.275,4.949-3.026,7.301-3.026a12.13492,12.13492,0,0,1,11.405,16.258v.069h39.302"/></g></g><g class="cls-23"><g class="cls-24"><path class="cls-25" d="M478.39984,1006.4379h2.546m-17.71,0h10.881m-15.198-.073-22.393-.037a6.25883,6.25883,0,0,0,.412-2.239,6.74713,6.74713,0,0,0-6.91-6.571c-1.34,0-3.1,1.012-4.16,1.64a10.82217,10.82217,0,0,0,.62-3.618c0-6.259-5.335-11.332-11.916-11.332a12.46794,12.46794,0,0,0-3.079.382l.055-.395a15.99489,15.99489,0,0,0,.031-7.042,17.33808,17.33808,0,0,0-17.141-13.209c-9.675,0-17.518,7.459-17.518,16.66a21.01413,21.01413,0,0,0,.248,4.273c.08.336-.102-.328,0,0a4.54493,4.54493,0,0,0-2.821-.669c-6.581,0-11.916,5.073-11.916,11.332a10.82142,10.82142,0,0,0,.62,3.618,6.46139,6.46139,0,0,0-4.16-1.64,6.74712,6.74712,0,0,0-6.91,6.571,6.27956,6.27956,0,0,0,.412,2.239v.037h-22.393"/></g></g><g class="cls-26"><g class="cls-27"><path class="cls-25" d="M1597.6,1047.5229h-2.546m17.71008,0h-10.88111m15.19812-.073,22.39295-.037a6.25884,6.25884,0,0,1-.412-2.239,6.74713,6.74713,0,0,1,6.91-6.571c1.34,0,3.1,1.012,4.15991,1.64a10.79749,10.79749,0,0,1-.62-3.618c0-6.259,5.33509-11.332,11.916-11.332a12.46728,12.46728,0,0,1,3.079.382l-.05493-.395a15.9925,15.9925,0,0,1-.031-7.042,17.338,17.338,0,0,1,17.141-13.209c9.67493,0,17.51795,7.459,17.51795,16.66a21.0846,21.0846,0,0,1-.24793,4.273c-.08008.336.10193-.328,0,0a4.54483,4.54483,0,0,1,2.82092-.669c6.58106,0,11.916,5.073,11.916,11.332a10.82207,10.82207,0,0,1-.62,3.618,6.4616,6.4616,0,0,1,4.16-1.64,6.74712,6.74712,0,0,1,6.91,6.571,6.28021,6.28021,0,0,1-.412,2.239v.037H1746"/></g></g><g class="cls-28"><g class="cls-29"><path class="cls-30" d="M110.00488,787.86832m24.369,0h45.97m-150.094,21.14h167.818"/></g></g><g class="cls-31"><g class="cls-32"><path class="cls-33" d="M63.2218,1028.0195m-28.011,0h-52.839m172.522,22H-38.0002"/></g></g><g class="cls-28"><g class="cls-34"><path class="cls-35" d="M1978.88989,647.20331m-24.36987,0h-45.969m150.094,21.14H1890.827"/></g></g><g class="cls-36"><g class="cls-37"><path class="cls-38" d="M1789.32812,994.597h3.495m12.304,0h65.43505m-129.694,12.811h70.02991"/></g></g><g class="cls-39"><g class="cls-40"><line class="cls-41" x1="1689.87866" y1="852.8371" x2="1655.71558" y2="852.8371"/></g></g><g class="cls-42"><g class="cls-43"><line class="cls-44" x1="1899.65967" y1="890.12041" x2="1868.79565" y2="890.12041"/></g></g><g class="cls-39"><g class="cls-45"><line class="cls-30" x1="1468.27332" y1="1019.7761" x2="1413.30322" y2="1019.7761"/></g></g><g class="cls-23"><g class="cls-46"><line class="cls-47" x1="1251.90845" y1="1034.5618" x2="1254.47437" y2="1034.5618"/></g></g><g class="cls-23"><g class="cls-48"><line class="cls-47" x1="1177.54248" y1="1034.5618" x2="1238.09143" y2="1034.5618"/></g></g><g class="cls-23"><g class="cls-49"><line class="cls-47" x1="1163.35962" y1="1046.8289" x2="1183.90857" y2="1046.8289"/></g></g><g class="cls-39"><g class="cls-50"><line class="cls-47" x1="717.35388" y1="1044.5618" x2="757.90283" y2="1044.5618"/></g></g><g class="cls-39"><g class="cls-51"><line class="cls-47" x1="703.17102" y1="1056.0298" x2="723.71997" y2="1056.0298"/></g></g><g class="cls-39"><g class="cls-52"><line class="cls-30" x1="441.5" y1="972.0195" x2="443.46997" y2="972.0195"/></g></g><g class="cls-39"><g class="cls-53"><line class="cls-54" x1="450" y1="989.5761" x2="495.96997" y2="989.5761"/></g></g><g class="cls-39"><g class="cls-55"><line class="cls-41" x1="1640.08752" y1="852.8371" x2="1638.62341" y2="852.8371"/></g></g><g class="cls-42"><g class="cls-56"><line class="cls-44" x1="1854.67627" y1="890.12041" x2="1853.35315" y2="890.12041"/></g></g><g class="cls-39"><g class="cls-57"><line class="cls-30" x1="1389.27332" y1="1019.7761" x2="1387.30322" y2="1019.7761"/></g></g><g class="cls-39"><g class="cls-58"><line class="cls-30" x1="1459.27332" y1="1036.8289" x2="1447.30322" y2="1036.8289"/></g></g><g class="cls-36"><g class="cls-59"><line class="cls-41" x1="1567.61401" y1="870.7348" x2="1690.85193" y2="870.7348"/></g></g><g class="cls-42"><g class="cls-60"><line class="cls-61" x1="1863.69739" y1="902.67619" x2="1943.33423" y2="902.67619"/></g></g><g class="cls-42"><g class="cls-62"><path class="cls-63" d="M211.10861,917.7977h-4.034m-14.202,0h-20.895m86.015,17.502h-71.781"/></g></g></g></g></g></svg>