<svg xmlns="http://www.w3.org/2000/svg" width="1in" height="1in" viewBox="0 0 72 72"><title>Icons</title><g id="Admin_-_Curriculum" data-name="Admin - Curriculum"><path d="M9.73824,4.2919H45.32a5.15726,5.15726,0,0,1,5.15726,5.15726V53.919A5.15726,5.15726,0,0,1,45.32,59.07624H9.73824a0,0,0,0,1,0,0V4.2919A0,0,0,0,1,9.73824,4.2919Z" fill="#f8b266"/><path d="M13.56211,52.12491A1.431,1.431,0,0,1,12.131,50.69382V10.98616a1.43109,1.43109,0,1,1,2.86218,0V50.69382A1.431,1.431,0,0,1,13.56211,52.12491Z" fill="#fedeb5"/><path d="M13.56211,56.41035A1.431,1.431,0,0,1,12.131,54.97926V54.1916a1.43109,1.43109,0,1,1,2.86218,0v.78766A1.431,1.431,0,0,1,13.56211,56.41035Z" fill="#fedeb5"/><path d="M56.52432,14.233H59.656V59.93942a2.96918,2.96918,0,0,1-2.96048,2.96049H22.55339a2.73885,2.73885,0,0,1-2.73885-2.73884v-.39h34.295l2.01688-2.16543.9244-9.244Z" fill="#f8b266"/><path d="M52.9148,61.20226H13.348a5.04637,5.04637,0,0,1-5.04067-5.04068V7.62758A5.04637,5.04637,0,0,1,13.348,2.5869H52.9148a5.04637,5.04637,0,0,1,5.04067,5.04068v48.534A5.04637,5.04637,0,0,1,52.9148,61.20226ZM13.348,5.44908a2.18083,2.18083,0,0,0-2.1785,2.1785v48.534a2.18083,2.18083,0,0,0,2.1785,2.1785H52.9148a2.18082,2.18082,0,0,0,2.17849-2.1785V7.62758a2.18082,2.18082,0,0,0-2.17849-2.1785Z" fill="#3a2418"/><path d="M59.43855,67.50463H19.87176a5.009,5.009,0,0,1-4.30389-2.41607,1.43111,1.43111,0,0,1,2.44291-1.49147,2.16608,2.16608,0,0,0,1.861,1.04537H59.43855A2.18083,2.18083,0,0,0,61.617,62.464V13.93a2.175,2.175,0,0,0-1.33046-2.00743,1.43115,1.43115,0,1,1,1.11468-2.63634,5.03258,5.03258,0,0,1,3.078,4.64377V62.464A5.04637,5.04637,0,0,1,59.43855,67.50463Z" fill="#3a2418"/><path d="M48.7311,15.664H17.46965a1.43109,1.43109,0,0,1,0-2.86218H48.7311a1.43109,1.43109,0,0,1,0,2.86218Z" fill="#3a2418"/><path d="M48.7311,24.49485H17.46965a1.43109,1.43109,0,1,1,0-2.86218H48.7311a1.43109,1.43109,0,1,1,0,2.86218Z" fill="#3a2418"/><path d="M48.7311,33.32567H17.46965a1.43109,1.43109,0,0,1,0-2.86218H48.7311a1.43109,1.43109,0,1,1,0,2.86218Z" fill="#3a2418"/><path d="M39.65543,42.15593H17.46965a1.43109,1.43109,0,0,1,0-2.86218H39.65543a1.43109,1.43109,0,0,1,0,2.86218Z" fill="#3a2418"/><path d="M31.08344,50.98675H17.46965a1.43109,1.43109,0,0,1,0-2.86218H31.08344a1.43109,1.43109,0,0,1,0,2.86218Z" fill="#3a2418"/></g></svg>