<svg xmlns="http://www.w3.org/2000/svg" width="1in" height="1in" viewBox="0 0 72 72"><title>Icons</title><g id="Registrar_-_Enlistment" data-name="Registrar - Enlistment"><polygon points="55.405 4.435 55.405 13.252 55.405 65.3 7.961 65.3 12.02 32.428 32.994 8.917 38.829 4.435 55.405 4.435" fill="#fff"/><polygon points="42.127 4.435 35.531 16.613 9.821 65.102 5.043 65.102 5.043 15.395 15.445 4.779 42.127 4.435" fill="#f8b266"/><polygon points="15.445 4.779 15.445 15.395 5.043 15.395 15.445 4.779" fill="#fff"/><path d="M52.15317,66.56854H44.36835a1.26857,1.26857,0,0,1,0-2.53713h7.78482a1.98534,1.98534,0,0,0,1.98312-1.98312V51.30763a1.26856,1.26856,0,1,1,2.53712,0V62.04829A4.5253,4.5253,0,0,1,52.15317,66.56854Z" fill="#010101"/><path d="M28.0039,66.56854H8.29459a4.5253,4.5253,0,0,1-4.52024-4.52025V15.1635a1.26747,1.26747,0,0,1,.35034-.87511l5.5185-5.78831c.01585-.01685.0322-.0327.0488-.04856l5.24844-4.94a1.26864,1.26864,0,0,1,.86941-.34489H52.15317a4.52529,4.52529,0,0,1,4.52024,4.52024v.11a1.26856,1.26856,0,0,1-2.53712,0v-.11a1.98534,1.98534,0,0,0-1.98312-1.98312H16.31305l-4.85721,4.57178L6.31147,15.67142V62.04829a1.98534,1.98534,0,0,0,1.98312,1.98312H28.0039a1.26857,1.26857,0,0,1,0,2.53713Z" fill="#010101"/><path d="M15.80984,16.664H5.04291a1.26857,1.26857,0,0,1,0-2.53713h9.49836V4.43523a1.26857,1.26857,0,0,1,2.53713,0V15.39541A1.26847,1.26847,0,0,1,15.80984,16.664Z" fill="#010101"/><path d="M42.33865,21.00038H15.44512a1.26857,1.26857,0,0,1,0-2.53713H42.33865a1.26857,1.26857,0,1,1,0,2.53713Z" fill="#010101"/><path d="M38.40611,28.7173h-22.961a1.26856,1.26856,0,1,1,0-2.53712h22.961a1.26856,1.26856,0,0,1,0,2.53712Z" fill="#010101"/><path d="M34.093,36.39013H15.44512a1.26857,1.26857,0,0,1,0-2.53713H34.093a1.26857,1.26857,0,0,1,0,2.53713Z" fill="#010101"/><path d="M29.52617,44.10655h-14.081a1.26856,1.26856,0,1,1,0-2.53712H29.52617a1.26856,1.26856,0,0,1,0,2.53712Z" fill="#010101"/><path d="M25.72048,51.823H15.44512a1.26856,1.26856,0,1,1,0-2.53712H25.72048a1.26856,1.26856,0,1,1,0,2.53712Z" fill="#010101"/><path d="M64.11321,14.68378,41.77244,55.03992l-6.89961,5.765.62038-10.33375L55.29084,13.72974s1.57384-4.50415,6.1-1.99854C61.3908,11.7312,64.97454,13.12788,64.11321,14.68378Z" fill="#f8b266"/><path d="M63.29058,12.7829,39.9964,54.86128l-3.88591,1.91425-1.30888,8.32688,1.96718-1.02394,10.29168-7.7384L67.438,19.53037S68.68906,15.22938,63.29058,12.7829Z" fill="#fff"/><path d="M46.36981,58.85409a1.265,1.265,0,0,1-.61322-.15857l-11.34075-6.2779a1.26865,1.26865,0,0,1-.49529-1.72445L51.30011,19.29872a1.269,1.269,0,0,1,1.7242-.49553l11.34075,6.2779a1.2696,1.2696,0,0,1,.49554,1.72445L47.48079,58.2A1.26781,1.26781,0,0,1,46.36981,58.85409Zm-9.61531-8.042,9.121,5.049L62.0264,26.68661l-9.121-5.049Z" fill="#010101"/><path d="M63.7506,27.45964a1.26844,1.26844,0,0,1-.61446-.15857l-11.34075-6.2779a1.26863,1.26863,0,0,1-.49528-1.72445l3.6875-6.66094h-.00025a5.16354,5.16354,0,0,1,7.018-2.01682l4.52619,2.50591a5.16357,5.16357,0,0,1,2.01632,7.01772l-3.68725,6.661a1.27062,1.27062,0,0,1-1.11.6541Zm-9.61654-8.042,9.121,5.049,3.0728-5.551a2.62553,2.62553,0,0,0-1.02526-3.56882l-4.52619-2.50591a2.62551,2.62551,0,0,0-3.56907,1.02576H57.2071Zm1.9633-6.16541h0Z" fill="#010101"/><path d="M34.80161,66.37082a1.268,1.268,0,0,1-1.26832-1.28937L33.762,51.28682a1.26871,1.26871,0,0,1,1.88278-1.08918l11.34075,6.2779a1.26874,1.26874,0,0,1,.07656,2.1739L35.49263,66.16617A1.26573,1.26573,0,0,1,34.80161,66.37082ZM36.26368,53.4404l-.15412,9.29916,7.79919-5.06731Z" fill="#010101"/></g></svg>