<svg xmlns="http://www.w3.org/2000/svg" width="1.1544in" height="1in" viewBox="0 0 83.11685 72"><title>Icons</title><g id="Admin_-_Faculty" data-name="Admin - Faculty"><path d="M51.32036,46.875H61.75l9.5-22.5,3.375-16L55.25,9.67316,45.375,22.689,40.22048,33.648,42.25,15.96853s-8.757-2.77179-8.75349-2.74516-6.56-1.72337-6.56-1.72337L23.441,13.024,21.79421,22.689,28.375,26.375l2.32224,9-8.903,6.39276-.00027,5.9124Z" fill="#fff"/><path d="M23.441,65.521s10.25746-.68961,11.934-1.396-1-8.125-1-8.125l10.25-1.59336L51.32036,46.875,57,36V31.72684l-6.50321,2.94779-5.60452,10.264L37.125,49.58314,23.441,51.75,26.5,60.41757Z" fill="#fff"/><path d="M27.06632,7.75191c-2.91169,0-3.62537,2.36039-3.62537,5.27205v2.07018c7.89849.00061,16.0959,8.6329,15.396,16.50036a13.641,13.641,0,0,1-2.22313,7.03159l3.09953-.77945,10.1769-10.6764a2.856,2.856,0,0,1,2.77205-.81788l9.33156-12.94524A6.552,6.552,0,0,1,66.38513,10.754a4.24477,4.24477,0,0,1,4.20834,2.2414c.9003,1.56989.09149,4.16261-.90757,5.66114L62.66327,31.83882l-.01845.08717c.71233.47717,1.659,1.56227.49256,3.84942C61.94,38.54474,59.45856,43.94,57.328,47.66177l21.87174,0V7.75191Z" fill="#f8b266"/><path d="M25.85512,46.34384l1.08134-1.40522a14.29252,14.29252,0,0,1-5.14226.95507v1.76806h4.414Z" fill="#f8b266"/><circle cx="21.79421" cy="31.59207" r="8.90303" fill="#f8b266"/><path d="M19.46132,21.938s10.55927,7.96938,4.434,18.542c0,0,5.03914-.68071,5.86953-4.02285a35.62842,35.62842,0,0,0,.93236-6.59847S28.08883,20.631,19.46132,21.938Z" fill="#fff"/><path d="M55.81617,31.72684,43.496,49.73845a2.70508,2.70508,0,0,1-2.23272,1.17786H30.654a2.02306,2.02306,0,0,0-2.013,2.22437l.98408,9.84078a1.84343,1.84343,0,0,1-1.50939,2.0041C24.478,65.6262,16.01406,66.28751,3.5458,64.948c0,0,.1489-16.922,16.62767-19.1134L41.318,45.56439S50.41617,32.02385,55.81617,31.72684Z" fill="#f8b266"/><path d="M17.69108,36.52657a1.36986,1.36986,0,0,1-.97776-.409,6.43274,6.43274,0,0,1-1.58349-6.15332,1.37243,1.37243,0,0,1,2.62557.80032,3.66466,3.66466,0,0,0,.91343,3.42643,1.37228,1.37228,0,0,1-.97775,2.33557Z" fill="#fedeb5"/><path d="M20.62917,38.801a1.37367,1.37367,0,0,1-.966-2.34361,1.3113,1.3113,0,0,1,.20852-.17046,1.21282,1.21282,0,0,1,.23586-.126,1.35031,1.35031,0,0,1,.25838-.07666,1.23816,1.23816,0,0,1,.53229,0,1.33356,1.33356,0,0,1,.25784.07666,1.21694,1.21694,0,0,1,.2364.126,1.31184,1.31184,0,0,1,.20853.17046,1.23071,1.23071,0,0,1,.16992.20853,1.43139,1.43139,0,0,1,.12651.23586,1.44842,1.44842,0,0,1,.082.25837,1.46832,1.46832,0,0,1,.02734.26857,1.38109,1.38109,0,0,1-.40579.97185,1.30919,1.30919,0,0,1-.20853.16993,1.249,1.249,0,0,1-.2364.12651,1.41308,1.41308,0,0,1-.25784.07665A1.43106,1.43106,0,0,1,20.62917,38.801Z" fill="#fedeb5"/><path d="M9.73128,59.6137A1.37318,1.37318,0,0,1,8.4855,57.6673c3.92174-8.52319,10.9665-8.48459,11.27312-8.46583a1.37159,1.37159,0,0,1,1.34227,1.40123,1.38554,1.38554,0,0,1-1.39266,1.34281c-.25248.00161-5.59314.0536-8.729,6.86894A1.3733,1.3733,0,0,1,9.73128,59.6137Z" fill="#fedeb5"/><path d="M8.4871,63.16181a1.08592,1.08592,0,0,1-.26856-.02733,1.31952,1.31952,0,0,1-.49423-.20317,1.051,1.051,0,0,1-.20853-.16992,1.36712,1.36712,0,0,1-.401-.97186,1.14671,1.14671,0,0,1,.02787-.26856,1.283,1.283,0,0,1,.07666-.25248,1.20182,1.20182,0,0,1,.126-.2364,1.07251,1.07251,0,0,1,.17046-.20852,1.30706,1.30706,0,0,1,.20853-.17529,1.59506,1.59506,0,0,1,.23586-.12651,1.39082,1.39082,0,0,1,.25837-.07666,1.37285,1.37285,0,0,1,1.24042.37846,1.30866,1.30866,0,0,1,.16993.20852,1.62549,1.62549,0,0,1,.12651.2364,1.35931,1.35931,0,0,1,.07665.25248,1.52639,1.52639,0,0,1,.02734.26856A1.36717,1.36717,0,0,1,8.4871,63.16181Z" fill="#fedeb5"/><path d="M74.07172,44.51532a1.38034,1.38034,0,0,1-.97186-.40632,1.36537,1.36537,0,0,1-.40043-.97132,1.147,1.147,0,0,1,.02734-.2691,1.37287,1.37287,0,0,1,.07666-.25248,1.24395,1.24395,0,0,1,.12651-.23586,1.329,1.329,0,0,1,.379-.379,1.2502,1.2502,0,0,1,.23586-.13187,1.41355,1.41355,0,0,1,.25784-.07665,1.38253,1.38253,0,0,1,1.23506.379,1.042,1.042,0,0,1,.17047.20853,1.21307,1.21307,0,0,1,.126.23586,1.35088,1.35088,0,0,1,.08255.25248,1.58009,1.58009,0,0,1,.02734.2691,1.371,1.371,0,0,1-.40633.97132,1.19882,1.19882,0,0,1-.20316.17046,1.43721,1.43721,0,0,1-.24122.126,1.3046,1.3046,0,0,1-.52158.10989Z" fill="#fedeb5"/><path d="M74.07011,40.30412a1.37219,1.37219,0,0,1-1.37228-1.37229v-21.591a1.37229,1.37229,0,1,1,2.74457,0v21.591A1.37219,1.37219,0,0,1,74.07011,40.30412Z" fill="#fedeb5"/><path d="M21.794,43.2942a11.70224,11.70224,0,1,1,11.70251-11.702A11.71528,11.71528,0,0,1,21.794,43.2942Zm0-19.56206a7.85983,7.85983,0,1,0,7.8601,7.8601A7.86868,7.86868,0,0,0,21.794,23.73214Z" fill="#3a2418"/><path d="M35.14057,65.55689a1.92126,1.92126,0,0,1-1.90673-1.70411c-.44921-3.95176-1.0855-8.50818-1.0914-8.55374A1.921,1.921,0,0,1,34.04489,53.112h9.14447a.72917.72917,0,0,0,.57625-.28035C51.63,42.79568,55.71684,35.97766,55.689,34.42955a1.60726,1.60726,0,0,0-.22246-.83088,1.64364,1.64364,0,0,0-.57519.09113L43.02854,47.03529a1.92148,1.92148,0,0,1-1.43607.64487H21.794A15.97392,15.97392,0,0,0,5.83848,63.63568a1.9212,1.9212,0,1,1-3.8424,0A19.82029,19.82029,0,0,1,21.794,43.83776H40.73l11.59422-13.0437a1.92032,1.92032,0,0,1,.57679-.44224,5.13317,5.13317,0,0,1,4.45726-.09328,4.51238,4.51238,0,0,1,2.1576,3.82954c.26856,2.89146-4.01287,9.99519-12.72636,21.11447a4.54881,4.54881,0,0,1-3.60011,1.75181H36.24483c.22836,1.71643.54785,4.18816.80676,6.46422a1.921,1.921,0,0,1-1.69177,2.126A1.90015,1.90015,0,0,1,35.14057,65.55689Z" fill="#3a2418"/><path d="M55.8144,33.648a1.92131,1.92131,0,0,1-1.61833-2.95364L64.76536,14.11272a1.921,1.921,0,1,1,3.23989,2.06487L57.436,32.75922A1.91954,1.91954,0,0,1,55.8144,33.648Z" fill="#3a2418"/><path d="M75.94414,49.58314q-.03779,0-.07558-.00161l-17.24365-.67971a1.92108,1.92108,0,1,1,.15117-3.83919l17.19755.67757A1.33568,1.33568,0,0,0,77.27837,44.406V10.85354a1.18139,1.18139,0,0,0-1.17984-1.18038H25.74844a2.0354,2.0354,0,0,0-2.03323,2.0327v2.5248a1.92121,1.92121,0,0,1-3.84241,0v-2.5248a5.88212,5.88212,0,0,1,5.87564-5.8751H76.09853a5.02811,5.02811,0,0,1,5.02225,5.02278V44.406A5.18288,5.18288,0,0,1,75.94414,49.58314Z" fill="#3a2418"/></g></svg>