<svg xmlns="http://www.w3.org/2000/svg" width="1in" height="1in" viewBox="0 0 72 72"><title>Icons</title><g id="System_-_Privacy_Policy" data-name="System - Privacy Policy"><path d="M35.948,4.4778C46.43938,16.15135,66.28934,14.6737,66.28934,14.6737S61.95485,53.93029,35.948,65.94863h.10368C10.04476,53.93029,5.71028,14.6737,5.71028,14.6737s19.85,1.47765,30.34137-10.1959" fill="#f8b266"/><path d="M36.05165,67.426h-.1039a1.47563,1.47563,0,0,1-.93393-.33248C24.21591,61.9379,15.48672,51.31373,9.74865,36.33275A95.72691,95.72691,0,0,1,4.24147,14.83563,1.47926,1.47926,0,0,1,5.819,13.19981a50.02954,50.02954,0,0,0,10.94626-.71517c5.34556-.93682,12.72118-3.19141,17.833-8.61028a1.54153,1.54153,0,0,1,2.80294.00058c9.98462,10.59069,28.58934,9.33872,28.77866,9.32487a1.478,1.478,0,0,1,1.57868,1.63582,95.72691,95.72691,0,0,1-5.50718,21.49712c-5.73865,14.981-14.46784,25.60515-25.26575,30.76081A1.47563,1.47563,0,0,1,36.05165,67.426ZM7.42133,16.21055c1.18675,7.4951,7.21747,37.64407,28.57837,48.07718,21.3609-10.43311,27.3922-40.58208,28.579-48.07718a55.20576,55.20576,0,0,1-9.77856-.80175C46.9575,14.04658,40.49792,11.03468,35.9997,6.66172c-4.49822,4.373-10.9578,7.38486-18.79981,8.74708A54.562,54.562,0,0,1,7.42133,16.21055Z" fill="#3a2418"/><path d="M44.31618,51.57982a1.47767,1.47767,0,0,1-1.028-2.53916c10.3044-9.97885,13.14544-27.47473,13.17315-27.65021a1.47771,1.47771,0,0,1,2.92012.45542c-.11776.75615-3.01075,18.63993-14.03724,29.31778A1.47359,1.47359,0,0,1,44.31618,51.57982Z" fill="#3a2418"/><path d="M39.86876,56.59118a1.47767,1.47767,0,0,1-1.02571-2.54147l1.18213-1.13941a1.47775,1.47775,0,1,1,2.05141,2.1276l-1.18213,1.13942A1.47283,1.47283,0,0,1,39.86876,56.59118Z" fill="#3a2418"/></g></svg>