<svg xmlns="http://www.w3.org/2000/svg" width="1in" height="1in" viewBox="0 0 72 72"><title>Icons</title><g id="Cashier_-_Discounts_and_Additional" data-name="Cashier - Discounts and Additional"><path d="M16.93663,19.46493l25.14749,17.1547,14.50527,16.536,7.19283-6.22385s3.78581-1.11905,0-4.90487S38.95671,18.11673,38.95671,18.11673L26.12832,11.72938Z" fill="#fff"/><path d="M20.71563,16.91439,35.22619,25.5411l25.03373,24.913L45.91726,64.79675s-2.31728,2.67037-6.90511-1.225S19.67322,43.45758,19.67322,43.45758l-5.29458-8.64891s-5.25882-6.33958-2.64787-10.25583S20.71563,16.91439,20.71563,16.91439Z" fill="#f8b266"/><polyline points="37.281 24.163 27.669 33.098 49.026 54.455 58.701 44.78 37.281 24.163" fill="#fff"/><path d="M43.465,67.26293A4.88684,4.88684,0,0,1,39.98652,65.822L18.6479,44.48342a15.9501,15.9501,0,0,1-2.82853-3.83483L9.83312,29.29991a4.89225,4.89225,0,0,1,.872-5.77264l3.058-3.058a1.45037,1.45037,0,0,1,2.05113,2.05114l-3.058,3.058a2.00719,2.00719,0,0,0-.35753,2.36787L18.385,39.295A13.04546,13.04546,0,0,0,20.699,42.43229L42.03822,63.7709a2.06464,2.06464,0,0,0,2.85289,0L62.7564,45.90619a2.017,2.017,0,0,0,0-2.8529L41.41721,21.71354a13.02325,13.02325,0,0,0-3.13733-2.314L26.93234,13.41324a2.0078,2.0078,0,0,0-2.36844.35753,1.45037,1.45037,0,0,1-2.05114-2.05113,4.89706,4.89706,0,0,1,5.77322-.872l11.34754,5.98626a15.93465,15.93465,0,0,1,3.8354,2.82853L64.80753,41.00159a4.91836,4.91836,0,0,1,0,6.9563L46.94282,65.822A4.88459,4.88459,0,0,1,43.465,67.26293Z" fill="#231f20"/><path d="M24.03525,29.85576a4.80807,4.80807,0,0,1-4.755-4.10284,1.45071,1.45071,0,0,1,2.87046-.42269,1.88531,1.88531,0,0,0,.53715,1.06636,1.95038,1.95038,0,0,0,2.69367,0,1.90415,1.90415,0,0,0,.00057-2.69424,1.45037,1.45037,0,1,1,2.05113-2.05113,4.806,4.806,0,0,1-3.398,8.20454Z" fill="#231f20"/><path d="M43.76582,61.16562a1.44582,1.44582,0,0,1-1.02557-.425L21.38351,39.38391a1.45,1.45,0,0,1,0-2.05113L36.31826,22.398a1.45,1.45,0,0,1,2.05115,0L59.72615,43.75476a1.45,1.45,0,0,1,0,2.05114L44.79139,60.74066A1.44582,1.44582,0,0,1,43.76582,61.16562ZM24.46021,38.35834,43.76582,57.664,56.64945,44.78033,37.34384,25.47472Z" fill="#231f20"/><path d="M23.5746,25.61354a1.4504,1.4504,0,0,1-1.4341-1.246c-.0374-.23741-.89808-5.14994-8.46292-8.855C5.95409,11.72927,6.00848,6.26146,7.11621,3.89869A1.45065,1.45065,0,1,1,9.743,5.1305c-.18528.425-1.67943,4.40145,5.21057,7.77676,9.07543,4.44507,10.0245,10.79509,10.0602,11.0631a1.45,1.45,0,0,1-1.24485,1.63014A1.41091,1.41091,0,0,1,23.5746,25.61354Z" fill="#231f20"/></g></svg>