<svg xmlns="http://www.w3.org/2000/svg" width="1in" height="1in" viewBox="0 0 72 72"><title>Icons</title><g id="Search_-_White" data-name="Search - White"><path d="M26.50233,48.90213a22.95107,22.95107,0,1,1,16.23622-6.71485A22.88875,22.88875,0,0,1,26.50233,48.90213Zm0-40.16424a17.21318,17.21318,0,1,0,12.17754,5.03563A17.17013,17.17013,0,0,0,26.50233,8.73789Z" fill="#fff"/><path d="M58.38308,67.89746a2.86,2.86,0,0,1-2.02933-.84088L38.7869,49.48973a2.86918,2.86918,0,0,1,0-4.05868l7.19542-7.19542a2.86917,2.86917,0,0,1,4.05867,0L67.60785,55.80248a2.86917,2.86917,0,0,1,0,4.05867l-7.19543,7.19543A2.86,2.86,0,0,1,58.38308,67.89746ZM44.87541,47.46039,58.38308,60.96806l3.13625-3.13625L48.01166,44.32414Z" fill="#fff"/><path d="M42.08266,49.06419h0a2.87109,2.87109,0,0,1-2.02985-.84089l-3.70448-3.705a2.86963,2.86963,0,0,1,.00051-4.05867l4.63455-4.63455a2.8701,2.8701,0,0,1,4.05867-.00051l3.705,3.70448a2.86978,2.86978,0,0,1,0,4.05918L44.112,48.2233A2.86774,2.86774,0,0,1,42.08266,49.06419Z" fill="#fff"/></g></svg>