<svg xmlns="http://www.w3.org/2000/svg" width="1in" height="1in" viewBox="0 0 72 72"><title>Icons</title><g id="Faculty_-_Schedule" data-name="Faculty - Schedule"><polygon points="51.909 9.524 51.909 65.54 64.687 65.54 64.687 10.605 51.909 9.524" fill="#fff"/><rect x="7.33356" y="10.60483" width="51.50176" height="55.80753" fill="#f8b266"/><path d="M11.75465,54.20028a1.62061,1.62061,0,0,1-1.62074-1.62074V21.35743a1.62074,1.62074,0,1,1,3.24148,0V52.57954A1.62061,1.62061,0,0,1,11.75465,54.20028Z" fill="#fedeb5"/><path d="M11.75465,62.44138a1.62061,1.62061,0,0,1-1.62074-1.62074V58.47056a1.62074,1.62074,0,0,1,3.24148,0v2.35008A1.62061,1.62061,0,0,1,11.75465,62.44138Z" fill="#fedeb5"/><path d="M61.4735,68.033H10.03419a5.55506,5.55506,0,0,1-5.54883-5.54852V13.45251a5.5552,5.5552,0,0,1,5.54883-5.54915H61.4735A5.55533,5.55533,0,0,1,67.022,13.45251V62.48443A5.55519,5.55519,0,0,1,61.4735,68.033ZM10.03419,11.14485a2.31009,2.31009,0,0,0-2.30734,2.30766V62.48443a2.31,2.31,0,0,0,2.30734,2.307H61.4735a2.30989,2.30989,0,0,0,2.307-2.307V13.45251a2.31,2.31,0,0,0-2.307-2.30766Z" fill="#231f20"/><path d="M15.38961,16.014a6.48994,6.48994,0,1,1,3.80717-11.746l.11775.08294a3.31478,3.31478,0,0,1,1.07881,1.0883,1.621,1.621,0,0,1-2.76539,1.68849c-.05128-.04179-.1089-.07724-.164-.11586l-.1703-.12029a3.24863,3.24863,0,1,0-1.90406,5.88089,1.62075,1.62075,0,0,1,0,3.24149Z" fill="#231f20"/><path d="M26.41035,16.014a6.48994,6.48994,0,1,1,3.80748-11.746l.11776.08294a3.31478,3.31478,0,0,1,1.07881,1.0883A1.621,1.621,0,0,1,28.649,7.12781c-.05128-.04179-.10889-.07724-.164-.11586l-.1703-.12029a3.24871,3.24871,0,1,0-1.90438,5.88089,1.62075,1.62075,0,1,1,0,3.24149Z" fill="#231f20"/><path d="M37.43141,16.014a6.48994,6.48994,0,1,1,3.80748-11.746l.11776.08294a3.31478,3.31478,0,0,1,1.07881,1.0883,1.621,1.621,0,0,1-2.7654,1.68849c-.05128-.04179-.10889-.07724-.164-.11586l-.17031-.12029a3.2487,3.2487,0,1,0-1.90437,5.88089,1.62075,1.62075,0,0,1,0,3.24149Z" fill="#231f20"/><path d="M48.45247,16.014A6.48994,6.48994,0,1,1,52.26,4.26808l.11775.08294a3.31478,3.31478,0,0,1,1.07881,1.0883,1.621,1.621,0,0,1-2.76539,1.68849c-.05128-.04179-.1089-.07724-.164-.11586l-.1703-.12029a3.24871,3.24871,0,1,0-1.90437,5.88089,1.62075,1.62075,0,0,1,0,3.24149Z" fill="#231f20"/><path d="M59.47352,16.014A6.48994,6.48994,0,1,1,63.281,4.26808l.11776.08294a3.31478,3.31478,0,0,1,1.07881,1.0883,1.621,1.621,0,0,1-2.76539,1.68849c-.05129-.04179-.1089-.07724-.164-.11586l-.1703-.12029a3.24871,3.24871,0,1,0-1.90438,5.88089,1.62075,1.62075,0,1,1,0,3.24149Z" fill="#231f20"/><rect x="15.88755" y="24.92132" width="39.87029" height="4.24361" rx="2.1218" ry="2.1218" fill="#231f20"/><rect x="15.88755" y="37.48208" width="39.87029" height="4.24361" rx="2.1218" ry="2.1218" fill="#231f20"/><rect x="15.88755" y="50.04285" width="39.87029" height="4.24361" rx="2.1218" ry="2.1218" fill="#231f20"/></g></svg>