<svg xmlns="http://www.w3.org/2000/svg" width="1in" height="1in" viewBox="0 0 72 72"><title>Icons</title><g id="Parent_-_Request_to_Enroll" data-name="Parent - Request to Enroll"><path d="M16.21162,6.44932S6.23269,13.74483,8.047,15.76692s9.26615,1.24451,9.91413-2.83778S18.35,3.79259,16.21162,6.44932Z" fill="#fff"/><path d="M58.06578,8.00449V63.42777s-1.1415,2.77673-3.32192,3.32192-9.30823,0-9.30823,0V4.57017l11.44329.77758S58.06578,5.47737,58.06578,8.00449Z" fill="#fff"/><polygon points="46.921 5.348 46.921 66.75 9.938 66.75 5.562 62.374 5.562 15.767 17.961 15.767 17.961 5.348 46.921 5.348" fill="#f8b266"/><path d="M32.916,33.77254a17.97512,17.97512,0,0,0,5.46648-.85839,9.40525,9.40525,0,0,1-3.33-17.9469c-.19329-.0119-1.94026-.02936-2.13652-.02936a9.41733,9.41733,0,1,0,0,18.83465Z" fill="#fff"/><path d="M38.38252,39.84508s-12.49965,4.807-14.64586,16.7095a2.16834,2.16834,0,0,1-2.16819,1.77194l-6.02645-.0818s.39869-13.73786,11.42025-17.701A22.87038,22.87038,0,0,1,38.38252,39.84508Z" fill="#fff"/><path d="M40.85655,58.32672h10.904s.50047-10.81691-7.10253-13.75443-6.27553,13.21884-6.27553,13.21884Z" fill="#f8b266"/><circle cx="51.02357" cy="27.732" r="7.93503" fill="#f8b266"/><path d="M46.21321,42.08h7.02191s12.92151,2.75144,12.92151,15.71109H51.76058S37.487,44.77165,46.21321,42.08Z" fill="#f8b266"/><path d="M46.3752,42.08h4.23209s8.35131,4.22021,8.35131,16.22948h-7.198s.15488-9.50374-6.32495-15.29238l.081-.297A.86688.86688,0,0,1,46.3752,42.08Z" fill="#fff"/><path d="M50.60987,35.49815a14.82356,14.82356,0,0,0,4.508-.70788,7.75619,7.75619,0,0,1-2.7461-14.8002c-.1594-.00982-1.61484-.1931-1.77669-.1931a7.89953,7.89953,0,0,0-7.7514,7.935A7.76617,7.76617,0,0,0,50.60987,35.49815Z" fill="#fff"/><path d="M54.7438,68.04556H9.93783a4.623,4.623,0,0,1-4.61789-4.61789V15.53012a1.297,1.297,0,0,1,.35791-.89452l5.638-5.91335c.0162-.0167.0329-.0329.04961-.0491L16.727,3.62648a1.29669,1.29669,0,0,1,.88844-.35234H54.7438A4.623,4.623,0,0,1,59.36169,7.892V22.26a1.296,1.296,0,0,1-2.59193,0V7.892a2.02807,2.02807,0,0,0-2.026-2.026H18.12924L13.16762,10.5366,7.91187,16.049V63.42767a2.02807,2.02807,0,0,0,2.026,2.026h44.806a2.02807,2.02807,0,0,0,2.026-2.026V59.17326a1.296,1.296,0,0,1,2.59193,0v4.25441A4.623,4.623,0,0,1,54.7438,68.04556Z" fill="#010101"/><path d="M58.06572,44.3132a1.29586,1.29586,0,0,1-1.296-1.296V32.92693a1.296,1.296,0,0,1,2.59193,0V43.01724A1.29587,1.29587,0,0,1,58.06572,44.3132Z" fill="#010101"/><path d="M17.61541,17.063H6.61591a1.296,1.296,0,1,1,0-2.59193h9.70354V4.5701a1.296,1.296,0,0,1,2.59193,0V15.767A1.29586,1.29586,0,0,1,17.61541,17.063Z" fill="#010101"/><path d="M33.72588,35.72338A11.66369,11.66369,0,1,1,45.38956,24.0597,11.67709,11.67709,0,0,1,33.72588,35.72338Zm0-20.73544a9.07176,9.07176,0,1,0,9.07175,9.07176A9.08211,9.08211,0,0,0,33.72588,14.98794Z" fill="#010101"/><path d="M51.90938,58.72221a1.29586,1.29586,0,0,1-1.296-1.296,16.8878,16.8878,0,0,0-33.77559,0,1.296,1.296,0,1,1-2.59193,0,19.47973,19.47973,0,0,1,38.95945,0A1.29587,1.29587,0,0,1,51.90938,58.72221Z" fill="#010101"/><path d="M50.782,37.79541a10.07238,10.07238,0,0,1-4.4326-1.02665,1.29615,1.29615,0,0,1,1.14308-2.32666,7.472,7.472,0,1,0,2.9711-14.17462,1.31678,1.31678,0,0,1-1.35013-1.23977,1.296,1.296,0,0,1,1.23977-1.35014,10.06349,10.06349,0,0,1,.85706,20.10873Q50.99613,37.79541,50.782,37.79541Z" fill="#010101"/><path d="M66.15639,58.72221a1.29587,1.29587,0,0,1-1.296-1.296A14.09893,14.09893,0,0,0,51.679,43.37363a1.296,1.296,0,0,1,.163-2.58687,16.69565,16.69565,0,0,1,15.6103,16.63948A1.29586,1.29586,0,0,1,66.15639,58.72221Z" fill="#010101"/></g></svg>