<svg xmlns="http://www.w3.org/2000/svg" width="1in" height="1in" viewBox="0 0 72 72"><title>Icons</title><g id="Parent_-_Students" data-name="Parent - Students"><path d="M23.58085,12.93841,41,35.30112s14.16667-7.475,9.33333-21.475-23.66666-6-23.66666-6Z" fill="#fff"/><path d="M50.5,67.74384H62.76658s-.01621-27.86305-26.7664-25.64039Z" fill="#fff"/><circle cx="32.32363" cy="22.40546" r="12.89567" fill="#f8b266"/><path d="M23.00223,44.34307C9.09693,50.92864,9.23345,67.74384,9.23345,67.74384H55.20833c-2.25241-24.543-20.83476-26.13848-20.83476-26.13848Z" fill="#f8b266"/><path d="M17.38666,60.59489a1.878,1.878,0,0,1-1.77545-2.4863A20.842,20.842,0,0,1,29.31482,44.99448a1.877,1.877,0,0,1,.92567,3.63816A17.04193,17.04193,0,0,0,19.16212,59.32571,1.87754,1.87754,0,0,1,17.38666,60.59489Z" fill="#fedeb5"/><path d="M15.31829,66.94078a1.83156,1.83156,0,0,1-.31381-.0264,1.87645,1.87645,0,0,1-1.53936-2.16222,7.59738,7.59738,0,0,1,.64742-1.95326,1.87706,1.87706,0,0,1,3.36028,1.67391,3.9992,3.9992,0,0,0-.30575.90258A1.87764,1.87764,0,0,1,15.31829,66.94078Z" fill="#fedeb5"/><path d="M32.22161,30.15a1.881,1.881,0,0,1-.55944-.08578c-6.60581-2.05958-7.42553-9.08075-6.93649-12.50629a1.87713,1.87713,0,0,1,3.71736.525c-.0385.28375-.85492,6.77921,4.33654,8.3974a1.87746,1.87746,0,0,1-.558,3.66969Z" fill="#fedeb5"/><path d="M36.82357,31.931a1.86122,1.86122,0,0,1-.3732-.03813l-.367-.074a1.87673,1.87673,0,1,1,.74274-3.67923l.367.07406a1.87726,1.87726,0,0,1-.36954,3.71735Z" fill="#fedeb5"/><path d="M36.00018,37.17777a17.1977,17.1977,0,1,1,17.1977-17.19733A17.217,17.217,0,0,1,36.00018,37.17777Zm0-30.64138A13.44369,13.44369,0,1,0,49.44387,19.98044,13.459,13.459,0,0,0,36.00018,6.53639Z" fill="#010101"/><path d="M62.76658,68.86984a1.87687,1.87687,0,0,1-1.877-1.877,24.88957,24.88957,0,0,0-49.77914,0,1.877,1.877,0,0,1-3.754,0,28.64358,28.64358,0,0,1,57.28716,0A1.87686,1.87686,0,0,1,62.76658,68.86984Z" fill="#010101"/></g></svg>