<svg xmlns="http://www.w3.org/2000/svg" width="1in" height="1in" viewBox="0 0 72 72"><title>Icons</title><g id="System_-_Settings" data-name="System - Settings"><path d="M6.30672,41.342l-.22638-7.83316-.66323-4.66395,7.09756-.50252,2.37676-3.5735L9.6395,19.63266l7.512-8.149,2.15845-1.907,4.91634,4.16208,2.31329-.80471,1.849-6.63264,4.92277-1.59728,8.06.17679.83985,7.78469,3.037.83455,5.48787-4.92,9.97532,8.48156-4.898,7.23788,1.83927,3.53769s7.36-.64311,7.4285-.39914.72442,14.42873.72442,14.42873l-6.2051.17932L57.034,43.11146l-.00606,2.54685,4.6135,5.30608-9.28013,9.76916-4.726-5.06024-4.379,1.04341-.22239,7.82085L29.84605,65.64583l-.7362-8.45334L24.772,56.02661,19.8148,61.0889l-9.22009-8.40334,3.6333-6.1923.7756-.82176-1.3754-2.91167L6.35434,42.99Z" fill="#f7b064"/><circle cx="35.60279" cy="35.05865" r="7.59059" fill="#fff"/><path d="M29.27977,67.1243a1.46184,1.46184,0,0,1-1.46135-1.41967l-.21587-7.47639q-.83-.28267-1.64352-.6276l-5.13446,5.44054a1.46229,1.46229,0,0,1-1.02106.458,1.42825,1.42825,0,0,1-1.04562-.398L8.45529,53.37761a1.462,1.462,0,0,1-.06-2.06669l5.135-5.44055c-.25984-.52652-.50083-1.06275-.72126-1.60469l-7.47582.21643A1.45846,1.45846,0,0,1,3.82965,43.063L3.4202,28.90286a1.46192,1.46192,0,0,1,1.4191-1.50361l7.47582-.21587q.28353-.82918.62817-1.64352l-5.44111-5.135a1.462,1.462,0,0,1-.06-2.06669l9.72411-10.302a1.46133,1.46133,0,0,1,2.06669-.06l5.44055,5.135q.79064-.39061,1.60412-.72126l-.21643-7.47639a1.46194,1.46194,0,0,1,1.4191-1.50362L41.64107,3.001a1.45593,1.45593,0,0,1,1.50361,1.4191l.21587,7.47582q.83.28268,1.64352.6276L50.13853,7.083a1.46229,1.46229,0,0,1,1.02106-.458,1.43884,1.43884,0,0,1,1.04563.398l10.3026,9.72354a1.462,1.462,0,0,1,.06,2.06669l-5.135,5.44055c.25984.52652.50083,1.06275.72126,1.60469l7.47582-.21643a1.455,1.455,0,0,1,1.50362,1.4191L67.5429,41.2219a1.46192,1.46192,0,0,1-1.4191,1.50361l-7.47582.21587q-.28353.82918-.6276,1.64295l5.44054,5.135a1.462,1.462,0,0,1,.06,2.06669l-9.72411,10.302a1.46133,1.46133,0,0,1-2.06669.06l-5.44055-5.135q-.79064.39062-1.60412.72126l.21643,7.47639a1.46218,1.46218,0,0,1-1.4191,1.50362L29.322,67.12373Zm-3.66967-12.745a1.4525,1.4525,0,0,1,.62761.14219,21.50143,21.50143,0,0,0,3.206,1.2238A1.46157,1.46157,0,0,1,30.495,57.1061l.20387,7.05266,11.238-.32494L41.733,56.78116a1.462,1.462,0,0,1,.97138-1.41967A21.4928,21.4928,0,0,0,45.83326,53.955a1.46165,1.46165,0,0,1,1.70692.21815L52.67349,59.018l7.71738-8.17538L55.257,45.99715a1.46221,1.46221,0,0,1-.31637-1.69207,21.37443,21.37443,0,0,0,1.22322-3.20368,1.46192,1.46192,0,0,1,1.36143-1.05247l7.05266-.20387-.32494-11.238-7.05209.20387a1.44353,1.44353,0,0,1-1.41967-.97138,21.44439,21.44439,0,0,0-1.40711-3.12887,1.46275,1.46275,0,0,1,.21815-1.70749l4.84549-5.13331-8.17595-7.71681-4.84492,5.13331a1.45887,1.45887,0,0,1-1.6915.31637,21.50143,21.50143,0,0,0-3.206-1.2238,1.46157,1.46157,0,0,1-1.05133-1.36085L40.26423,5.966l-11.238.32437.20387,7.05266a1.462,1.462,0,0,1-.97138,1.41967,21.4928,21.4928,0,0,0-3.12887,1.40654,1.46411,1.46411,0,0,1-1.70692-.21815l-5.13331-4.84492-7.71738,8.17537,5.13388,4.8455a1.46135,1.46135,0,0,1,.31637,1.6915,21.45835,21.45835,0,0,0-1.22322,3.20482,1.46192,1.46192,0,0,1-1.36142,1.05247l-7.05267.20387.32494,11.23744,7.05209-.20387a1.46447,1.46447,0,0,1,1.41967.97138A21.44546,21.44546,0,0,0,16.589,45.41352a1.46275,1.46275,0,0,1-.21815,1.70749l-4.84549,5.13331,8.176,7.71681,4.84492-5.13331A1.46137,1.46137,0,0,1,25.6101,54.37926Z" fill="#3a2315"/><path d="M35.47413,45.19309a10.14213,10.14213,0,1,1,.29981-.00457h0C35.674,45.19138,35.57349,45.19309,35.47413,45.19309Zm.01313-17.33756c-.07138,0-.14219.00057-.21358.00285a7.20671,7.20671,0,0,0,.41574,14.40743h0a7.20664,7.20664,0,0,0-.20216-14.41028Z" fill="#3a2315"/></g></svg>