<svg xmlns="http://www.w3.org/2000/svg" width="1in" height="1in" viewBox="0 0 72 72"><title>Icons</title><g id="Parent_-_Matriculation_Fees" data-name="Parent - Matriculation Fees"><path d="M18.39541,12.42206S48.188,36.5,42.18663,52.96764s-6.18655,13.14325-6.18655,13.14325,14.85909-1.19537,23.1686-10.50961S74.1185,16.29758,43.25626,5.35774C43.25626,5.35774,26.11148,1.491,18.39541,12.42206Z" fill="#fff"/><path d="M25.618,8.80165a30.2263,30.2263,0,0,0-3.18465.17032A29.939,29.939,0,0,0,36.00008,65.60045a30.26753,30.26753,0,0,0,3.18469-.17033A29.939,29.939,0,0,0,25.618,8.80165Z" fill="#f8b266"/><path d="M36,67.71829A32.41717,32.41717,0,1,1,68.41717,35.30112,32.454,32.454,0,0,1,36,67.71829ZM36,6.099A29.20214,29.20214,0,1,0,65.20214,35.30112,29.23517,29.23517,0,0,0,36,6.099Z" fill="#231f20"/><path d="M48.70125,23.89673a9.65118,9.65118,0,0,0-4.17954-3.97734,16.24251,16.24251,0,0,0-7.62283-1.56733h-11.435a1.81517,1.81517,0,0,0-1.3733.579,1.93617,1.93617,0,0,0-.56232,1.40658v1.676H30.934v.0088h5.5137c3.47814,0,5.97355.68759,7.41718,2.0433a7.04832,7.04832,0,0,1,0,10.19893c-1.44363,1.35571-3.939,2.0433-7.41718,2.0433H27.4494v-.00754H23.52825v14.732a1.90466,1.90466,0,0,0,1.93562,1.9353,1.94037,1.94037,0,0,0,1.40688-.562,1.81347,1.81347,0,0,0,.57865-1.37329V39.97816h9.44948a16.2362,16.2362,0,0,0,7.62283-1.56733,9.64413,9.64413,0,0,0,4.17954-3.97734,11.583,11.583,0,0,0,0-10.53676Z" fill="#010101"/><rect x="16.89505" y="24.64559" width="39.03821" height="3.53012" rx="1.76506" ry="1.76506" fill="#010101"/><rect x="16.89505" y="30.48622" width="39.03821" height="3.53012" rx="1.76506" ry="1.76506" fill="#010101"/></g></svg>