<svg xmlns="http://www.w3.org/2000/svg" width="1in" height="1in" viewBox="0 0 72 72"><title>Icons</title><g id="Admin_-_Rooms" data-name="Admin - Rooms"><polygon points="49.772 67.587 60.545 67.587 60.545 5.724 46.357 5.724 49.772 67.587" fill="#fff"/><path d="M11.11539,4.7376H50.09713A2.67576,2.67576,0,0,1,52.5516,7.58965V64.73537l-.00012.04717A2.80718,2.80718,0,0,1,49.772,67.58742H12.77909a2.67576,2.67576,0,0,1-2.45446-2.852V4.7376" fill="#f8b266"/><circle cx="53.33286" cy="44.90658" r="1.7965" fill="#fff"/><path d="M17.71,57.27437a1.7376,1.7376,0,0,1-1.73773-1.73774V18.58328a1.73774,1.73774,0,1,1,3.47547,0V55.53663A1.73761,1.73761,0,0,1,17.71,57.27437Z" fill="#fedeb5"/><path d="M17.71,66.11034a1.7376,1.7376,0,0,1-1.73773-1.73773V61.85289a1.73774,1.73774,0,0,1,3.47547,0v2.51972A1.73761,1.73761,0,0,1,17.71,66.11034Z" fill="#fedeb5"/><path d="M26.60141,20.79259v6.80763a1.27107,1.27107,0,0,0,1.12053,1.38051H46.3565v-8.4063Z" fill="#fff"/><path d="M60.54518,67.85283a1.73761,1.73761,0,0,1-1.73774-1.73774v-1.38a1.73774,1.73774,0,1,1,3.47548,0v1.38A1.73761,1.73761,0,0,1,60.54518,67.85283Z" fill="#3a2418"/><path d="M60.54518,60.02827a1.73761,1.73761,0,0,1-1.73774-1.73774V38.1328a1.73774,1.73774,0,0,1,3.47548,0V58.29053A1.73761,1.73761,0,0,1,60.54518,60.02827Z" fill="#3a2418"/><path d="M11.19349,67.85283a1.73761,1.73761,0,0,1-1.73773-1.73774V6.36992A3.37374,3.37374,0,0,1,12.826,3H58.91266a3.37375,3.37375,0,0,1,3.37026,3.36992V31.38448a1.73774,1.73774,0,1,1-3.47548,0V6.47547H12.93123V66.11509A1.73761,1.73761,0,0,1,11.19349,67.85283Z" fill="#3a2418"/><path d="M46.35684,30.57365h-20.975a2.46163,2.46163,0,0,1-2.45862-2.459V21.39183a2.46164,2.46164,0,0,1,2.45862-2.459h20.975a2.46165,2.46165,0,0,1,2.45863,2.459v6.72286A2.46164,2.46164,0,0,1,46.35684,30.57365Zm-20.975-9.55551a.37408.37408,0,0,0-.37334.37369v6.72286a.37407.37407,0,0,0,.37334.37368h20.975a.37407.37407,0,0,0,.37334-.37368V21.39183a.37408.37408,0,0,0-.37334-.37369Z" fill="#010101"/><path d="M46.35684,21.01814a1.03972,1.03972,0,0,1-.70935-.2783l-9.36408-8.69072a.60976.60976,0,0,0-.82814,0l-9.36409,8.69072a1.04278,1.04278,0,0,1-1.4187-1.52867l9.36409-8.69071a2.70637,2.70637,0,0,1,3.66553,0l9.36409,8.69071a1.04265,1.04265,0,0,1-.70935,1.807Z" fill="#010101"/><circle cx="35.86934" cy="9.51285" r="1.76137" fill="#fff"/><path d="M35.86934,11.96936a2.45642,2.45642,0,1,1,2.45658-2.45659A2.45917,2.45917,0,0,1,35.86934,11.96936Zm0-3.52265a1.06623,1.06623,0,1,0,1.0664,1.06606A1.06754,1.06754,0,0,0,35.86934,8.44671Z" fill="#010101"/><path d="M53.42046,48.526A3.70711,3.70711,0,1,1,57.12741,44.819,3.71132,3.71132,0,0,1,53.42046,48.526Zm0-5.32928A1.622,1.622,0,1,0,55.04212,44.819,1.62391,1.62391,0,0,0,53.42046,43.19667Z" fill="#010101"/><path d="M43.60226,25.7959H28.13641a1.04264,1.04264,0,0,1,0-2.08528H43.60226a1.04264,1.04264,0,0,1,0,2.08528Z" fill="#010101"/></g></svg>