<svg xmlns="http://www.w3.org/2000/svg" width="1in" height="1in" viewBox="0 0 72 72"><title>Icons</title><g id="Cashier_-_Other_Fees" data-name="Cashier - Other Fees"><circle cx="36.34118" cy="35.68699" r="30.02489" fill="#fff"/><path d="M29.2146,8.365a29.36507,29.36507,0,0,0-4.91317.41971,29.20419,29.20419,0,0,0,16.98682,55.385A29.20825,29.20825,0,0,0,29.2146,8.365Z" fill="#f8b266"/><path d="M36.375,67.8064A32.375,32.375,0,1,1,68.75,35.4314,32.4113,32.4113,0,0,1,36.375,67.8064Zm0-61.68128A29.30628,29.30628,0,1,0,65.68128,35.4314,29.33974,29.33974,0,0,0,36.375,6.12512Z" fill="#3a2418"/><circle cx="52.28393" cy="35.37524" r="3.72862" fill="#fff"/><circle cx="36.34118" cy="35.37524" r="3.72862" fill="#fff"/><circle cx="20.45446" cy="35.37524" r="3.72862" fill="#fff"/><path d="M20.45421,41.018a5.63788,5.63788,0,1,1,5.63818-5.63817A5.64446,5.64446,0,0,1,20.45421,41.018Zm0-8.207a2.56916,2.56916,0,1,0,2.56946,2.56886A2.572,2.572,0,0,0,20.45421,32.811Z" fill="#3a2418"/><path d="M36.375,41.018a5.63788,5.63788,0,1,1,5.63817-5.63817A5.64459,5.64459,0,0,1,36.375,41.018Zm0-8.207a2.56916,2.56916,0,1,0,2.56945,2.56886A2.57213,2.57213,0,0,0,36.375,32.811Z" fill="#3a2418"/><path d="M52.22806,41.018a5.63788,5.63788,0,1,1,5.63757-5.63817A5.64459,5.64459,0,0,1,52.22806,41.018Zm0-8.207a2.56916,2.56916,0,1,0,2.56885,2.56886A2.57213,2.57213,0,0,0,52.22806,32.811Z" fill="#3a2418"/></g></svg>