<svg xmlns="http://www.w3.org/2000/svg" width="1in" height="1in" viewBox="0 0 72 72"><title>Icons</title><g id="Faculty_-_Subjects" data-name="Faculty - Subjects"><rect x="43.76693" y="5.27332" width="20.40996" height="60.35375" fill="#fff"/><rect x="8.82267" y="5.27176" width="44.36245" height="61.24918" fill="#f8b266"/><path d="M60.84817,68.01071H10.89376a4.8236,4.8236,0,0,1-4.8182-4.8185V7.8749a4.8236,4.8236,0,0,1,4.8182-4.8185H60.84817a4.82366,4.82366,0,0,1,4.8185,4.8185V63.19221A4.82366,4.82366,0,0,1,60.84817,68.01071ZM10.89376,6.036A1.8411,1.8411,0,0,0,9.05511,7.8749V63.19221a1.8411,1.8411,0,0,0,1.83865,1.83895H60.84817a1.84135,1.84135,0,0,0,1.83894-1.83895V7.8749A1.84134,1.84134,0,0,0,60.84817,6.036Z" fill="#3a2418"/><polygon points="55.279 24.956 48.919 18.601 42.426 24.229 42.426 5.273 55.983 5.273 55.279 24.956" fill="#fff"/><path d="M55.27925,26.44591a1.49068,1.49068,0,0,1-1.10133-.4865l-4.9733-5.45981-4.97329,5.45981a1.49069,1.49069,0,0,1-1.10133.4865,2.208,2.208,0,0,1-2.19364-2.21721V5.27361A2.208,2.208,0,0,1,43.13,3.0564H55.27925a2.208,2.208,0,0,1,2.19364,2.21721V24.2287A2.208,2.208,0,0,1,55.27925,26.44591Zm-4.67069-8.82984,3.88477,4.26507V6.036H43.91591V21.88114l3.88477-4.26507a1.8552,1.8552,0,0,1,2.80788,0Z" fill="#3a2418"/><path d="M18.14276,37.99169A1.48967,1.48967,0,0,1,16.653,36.50191V10.65427a1.48978,1.48978,0,1,1,2.97955,0V36.50191A1.48966,1.48966,0,0,1,18.14276,37.99169Z" fill="#fff"/><path d="M18.14276,53.78333A1.48966,1.48966,0,0,1,16.653,52.29356V43.35489a1.48978,1.48978,0,1,1,2.97955,0v8.93867A1.48965,1.48965,0,0,1,18.14276,53.78333Z" fill="#fff"/><path d="M18.14276,61.86538A1.48967,1.48967,0,0,1,16.653,60.3756V58.532a1.48978,1.48978,0,1,1,2.97955,0v1.8436A1.48966,1.48966,0,0,1,18.14276,61.86538Z" fill="#fff"/></g></svg>