<svg xmlns="http://www.w3.org/2000/svg" width="1in" height="1in" viewBox="0 0 72 72"><title>Icons</title><g id="Cashier_-_Payment_Plans" data-name="Cashier - Payment Plans"><path d="M11.78875,38.96147A27.32842,27.32842,0,1,0,39.11716,11.63306V38.96147Z" fill="#f8b266"/><path d="M39.11724,67.89746A28.96891,28.96891,0,0,1,10.18117,38.96171,1.60756,1.60756,0,0,1,11.78885,37.354H37.50956V11.633a1.60756,1.60756,0,0,1,1.60768-1.60769,28.93607,28.93607,0,1,1,0,57.87214ZM13.44614,40.56939A25.72107,25.72107,0,1,0,40.72492,13.2903V38.96171a1.60756,1.60756,0,0,1-1.60768,1.60768Z" fill="#231f20"/><path d="M5.55428,29.7441A25.07983,25.07983,0,0,1,30.63411,4.66427V29.7441Z" fill="#fff"/><path d="M30.63421,31.3516H5.55437a1.60756,1.60756,0,0,1-1.60768-1.60769A26.71784,26.71784,0,0,1,30.63421,3.0564a1.60756,1.60756,0,0,1,1.60768,1.60768V29.74391A1.60756,1.60756,0,0,1,30.63421,31.3516ZM7.21638,28.13623H29.02652V6.3264A23.50854,23.50854,0,0,0,7.21638,28.13623Z" fill="#231f20"/><path d="M47.94536,59.88794a1.92912,1.92912,0,0,1-.99444-3.58337c17.11866-10.27158,8.71445-26.46646,8.34832-27.151a1.92905,1.92905,0,1,1,3.40188-1.81994C62.40224,34.25107,65.124,49.90022,48.936,59.61288A1.91864,1.91864,0,0,1,47.94536,59.88794Z" fill="#fff"/><path d="M39.60488,62.454a11.44355,11.44355,0,0,1-4.20949-.81577,1.92922,1.92922,0,1,1,1.41489-3.58965,6.92006,6.92006,0,0,0,4.635.27757,1.94,1.94,0,0,1,2.4784,1.12161,1.91886,1.91886,0,0,1-1.08487,2.47621A9.283,9.283,0,0,1,39.60488,62.454Z" fill="#fff"/></g></svg>