<svg xmlns="http://www.w3.org/2000/svg" width="1in" height="1in" viewBox="0 0 72 72"><title>Icons</title><g id="Faculty_-_Attendance" data-name="Faculty - Attendance"><circle cx="31.41006" cy="36.24596" r="28.23023" fill="#fff"/><path d="M23.00176,11.81012A28.32023,28.32023,0,0,0,14.56484,13.088,28.33376,28.33376,0,0,0,39.44911,63.1983,28.32463,28.32463,0,0,0,23.00176,11.81012Z" fill="#f8b266"/><path d="M57.01011,27.226S35.09373,48.751,29.05485,58.22025a2.79677,2.79677,0,0,1-4.29769.51579l-.0627-.06193C22.59792,56.57757,7.633,40.3113,3.36758,38.50394c0,0-1.35051-1.3736,3.1925-3.10867s19.79715,14.5312,19.79715,14.5312l30.00223-28.9901Z" fill="#fff"/><path d="M60.212,41.52981a1.43944,1.43944,0,0,1-.20366-.01466,1.391,1.391,0,0,1-1.17361-1.57768,27.8919,27.8919,0,0,0-.01955-8.21422,1.39037,1.39037,0,1,1,2.74911-.41818,30.68611,30.68611,0,0,1,.02173,9.03646A1.39067,1.39067,0,0,1,60.212,41.52981Z" fill="#3a2418"/><path d="M44.26907,63.29139a1.39075,1.39075,0,0,1-.611-2.6405A27.5406,27.5406,0,0,0,57.10715,46.27261a1.39044,1.39044,0,0,1,2.57533,1.04925A30.32364,30.32364,0,0,1,44.87787,63.15019,1.3885,1.3885,0,0,1,44.26907,63.29139Z" fill="#3a2418"/><path d="M31.601,66.20507A30.30873,30.30873,0,1,1,49.65108,11.5464a1.39011,1.39011,0,0,1-1.65751,2.2321,27.529,27.529,0,1,0-16.3926,49.646,27.64291,27.64291,0,0,0,6.92384-.87763,1.39021,1.39021,0,1,1,.69733,2.69155A30.414,30.414,0,0,1,31.601,66.20507Z" fill="#3a2418"/><path d="M63.36328,14.59848,38.56536,39.48579,27.24576,52.52221H25.11061S7.87466,35.71736,7.54623,35.46993s.44266-1.90958.44266-1.90958l5.0922-3.5293s10.68541,6.37462,12.84046,9.70451c0,0,33.35225-26.61841,41.806-29.20849Z" fill="#fff"/><path d="M26.54155,54.79748a1.3908,1.3908,0,0,1-.99548-.41981c-.1146-.11785-11.52762-11.81545-17.7134-16.90419a3.54434,3.54434,0,0,1,.22538-5.653h.00054l3.25365-2.2549a3.54921,3.54921,0,0,1,3.85593-.11785A62.64936,62.64936,0,0,1,26.5296,38.14582C31.91922,33.43289,55.36926,13.30058,68.789,7.785a1.39037,1.39037,0,0,1,1.46145,2.31682c-.27154.24548-27.31467,24.78714-42.61784,44.16673a1.38992,1.38992,0,0,1-1.01883.52734C26.58988,54.79694,26.56544,54.79748,26.54155,54.79748ZM9.64278,34.10578a.74435.74435,0,0,0-.32694.592.76056.76056,0,0,0,.28295.62835C14.82494,39.6252,23.38837,48.22121,26.434,51.31248c10.24429-12.71644,25.02337-27.3,34.03051-35.87593-12.995,8.23377-28.73865,21.849-32.42188,25.07986a2.33571,2.33571,0,0,1-3.18142-.11079,59.54487,59.54487,0,0,0-11.1355-8.58027.75977.75977,0,0,0-.8293.02553Z" fill="#3a2418"/><path d="M57.01011,27.226S35.09373,48.751,29.05485,58.22025a2.79677,2.79677,0,0,1-4.29769.51579l-.0627-.06193C22.59792,56.57757,7.633,40.3113,3.36758,38.50394c0,0-1.35051-1.3736,3.1925-3.10867s19.79715,14.5312,19.79715,14.5312l30.00223-28.9901Z" fill="#fff"/><path d="M60.212,41.52981a1.43944,1.43944,0,0,1-.20366-.01466,1.391,1.391,0,0,1-1.17361-1.57768,27.8919,27.8919,0,0,0-.01955-8.21422,1.39037,1.39037,0,1,1,2.74911-.41818,30.68611,30.68611,0,0,1,.02173,9.03646A1.39067,1.39067,0,0,1,60.212,41.52981Z" fill="#3a2418"/><path d="M44.26907,63.29139a1.39075,1.39075,0,0,1-.611-2.6405A27.5406,27.5406,0,0,0,57.10715,46.27261a1.39044,1.39044,0,0,1,2.57533,1.04925A30.32364,30.32364,0,0,1,44.87787,63.15019,1.3885,1.3885,0,0,1,44.26907,63.29139Z" fill="#3a2418"/><path d="M31.601,66.20507A30.30873,30.30873,0,1,1,49.65108,11.5464a1.39011,1.39011,0,0,1-1.65751,2.2321,27.529,27.529,0,1,0-16.3926,49.646,27.64291,27.64291,0,0,0,6.92384-.87763,1.39021,1.39021,0,1,1,.69733,2.69155A30.414,30.414,0,0,1,31.601,66.20507Z" fill="#3a2418"/><path d="M63.36328,14.59848,38.56536,39.48579,27.24576,52.52221H25.11061S7.87466,35.71736,7.54623,35.46993s.44266-1.90958.44266-1.90958l5.0922-3.5293s10.68541,6.37462,12.84046,9.70451c0,0,33.35225-26.61841,41.806-29.20849Z" fill="#fff"/><path d="M26.54155,54.79748a1.3908,1.3908,0,0,1-.99548-.41981c-.1146-.11785-11.52762-11.81545-17.7134-16.90419a3.54434,3.54434,0,0,1,.22538-5.653h.00054l3.25365-2.2549a3.54921,3.54921,0,0,1,3.85593-.11785A62.64936,62.64936,0,0,1,26.5296,38.14582C31.91922,33.43289,55.36926,13.30058,68.789,7.785a1.39037,1.39037,0,0,1,1.46145,2.31682c-.27154.24548-27.31467,24.78714-42.61784,44.16673a1.38992,1.38992,0,0,1-1.01883.52734C26.58988,54.79694,26.56544,54.79748,26.54155,54.79748ZM9.64278,34.10578a.74435.74435,0,0,0-.32694.592.76056.76056,0,0,0,.28295.62835C14.82494,39.6252,23.38837,48.22121,26.434,51.31248c10.24429-12.71644,25.02337-27.3,34.03051-35.87593-12.995,8.23377-28.73865,21.849-32.42188,25.07986a2.33571,2.33571,0,0,1-3.18142-.11079,59.54487,59.54487,0,0,0-11.1355-8.58027.75977.75977,0,0,0-.8293.02553Z" fill="#3a2418"/></g></svg>