<svg xmlns="http://www.w3.org/2000/svg" width="1in" height="1in" viewBox="0 0 72 72"><title>Icons</title><g id="System_-_My_Profile" data-name="System - My Profile"><circle cx="36.85549" cy="18.45025" r="13.91227" fill="#f8b266"/><path d="M36.85569,33.90076A15.45038,15.45038,0,1,1,52.30576,18.45008,15.46833,15.46833,0,0,1,36.85569,33.90076Zm0-27.8242A12.37382,12.37382,0,1,0,49.22921,18.45008,12.388,12.388,0,0,0,36.85569,6.07656Z" fill="#3a2418"/><path d="M9.16115,63.26422a2.39152,2.39152,0,0,0,2.37356,2.62292H62.17627a2.39152,2.39152,0,0,0,2.37356-2.62292,27.81847,27.81847,0,0,0-55.38868,0Z" fill="#f8b266"/><path d="M62.176,67.4256H11.53479a3.93,3.93,0,0,1-3.90518-4.30418h0a29.35687,29.35687,0,0,1,58.45215,0A3.93007,3.93007,0,0,1,62.176,67.4256ZM36.85569,39.60921A26.14658,26.14658,0,0,0,10.693,63.40745v.0006a.86061.86061,0,0,0,.22112.66639.83327.83327,0,0,0,.62072.2746H62.176a.83325.83325,0,0,0,.62072-.2746.86212.86212,0,0,0,.22173-.667A26.14744,26.14744,0,0,0,36.85569,39.60921ZM9.16128,63.26444h0Z" fill="#3a2418"/></g></svg>