<svg xmlns="http://www.w3.org/2000/svg" width="1in" height="1in" viewBox="0 0 72 72"><title>Icons</title><g id="System_-_About" data-name="System - About"><circle cx="35.84567" cy="35.21258" r="30.73515" fill="#f8b266"/><path d="M35.84587,67.4256a32.2128,32.2128,0,1,1,32.2128-32.2128A32.249,32.249,0,0,1,35.84587,67.4256Zm0-61.4703A29.2575,29.2575,0,1,0,65.10336,35.2128,29.291,29.291,0,0,0,35.84587,5.9553Z" fill="#3a2418"/><rect x="31.84914" y="28.94372" width="7.99307" height="25.94624" fill="#fff"/><path d="M39.84245,56.36746H31.84928a1.47754,1.47754,0,0,1-1.47765-1.47766v-25.946a1.47754,1.47754,0,0,1,1.47765-1.47765h7.99317a1.47754,1.47754,0,0,1,1.47765,1.47765V54.8898A1.47754,1.47754,0,0,1,39.84245,56.36746Zm-6.51552-2.95531H38.3648V30.4214H33.32693Z" fill="#3a2418"/><rect x="31.84914" y="15.53519" width="7.99307" height="7.30295" fill="#fff"/><path d="M39.84245,24.3157H31.84928a1.47754,1.47754,0,0,1-1.47765-1.47765V15.53522a1.47753,1.47753,0,0,1,1.47765-1.47765h7.99317a1.47753,1.47753,0,0,1,1.47765,1.47765v7.30283A1.47754,1.47754,0,0,1,39.84245,24.3157Zm-6.51552-2.9553H38.3648V17.01287H33.32693Z" fill="#3a2418"/></g></svg>