<svg xmlns="http://www.w3.org/2000/svg" width="1in" height="1in" viewBox="0 0 72 72"><title>Icons</title><g id="System_-_Log_Out" data-name="System - Log Out"><path d="M55.13324,17.36391a27.9954,27.9954,0,1,1-37.913-.07843,4.00063,4.00063,0,0,1,6.13642.97413l.00071.00122a4.04958,4.04958,0,0,1-.84276,5.06358,20.40708,20.40708,0,1,0,27.23712-.00173,4.0483,4.0483,0,0,1-.84166-5.06214h0A4.027,4.027,0,0,1,55.13324,17.36391Z" fill="#f7b064"/><path d="M36.12175,67.4172A29.49077,29.49077,0,0,1,6.64318,37.92578a29.57064,29.57064,0,0,1,9.56638-21.74272,5.40865,5.40865,0,0,1,4.48258-1.359,5.51423,5.51423,0,0,1,3.93628,2.64736l.021.03506A5.5775,5.5775,0,0,1,23.513,24.43832,18.91156,18.91156,0,0,0,36.141,57.43365c.05959,0,.11861-.00059.17879-.00117A18.91154,18.91154,0,0,0,48.75325,24.43656a5.57435,5.57435,0,0,1-1.13467-6.9307,5.46916,5.46916,0,0,1,3.93452-2.66314,5.53646,5.53646,0,0,1,4.59535,1.42272h0A29.4913,29.4913,0,0,1,37.28446,67.395Q36.70163,67.41692,36.12175,67.4172ZM19.86948,17.7536a2.41473,2.41473,0,0,0-1.63832.63452A26.5719,26.5719,0,0,0,9.63469,37.92578a26.50047,26.50047,0,0,0,27.53642,26.48A26.49964,26.49964,0,0,0,54.1175,18.46233h0a2.55328,2.55328,0,0,0-2.12385-.66082,2.49374,2.49374,0,0,0-1.79256,1.21413,2.54127,2.54127,0,0,0,.54922,3.19366A21.90311,21.90311,0,0,1,36.34845,60.424c-.069.00059-.13848.00117-.20684.00117A21.903,21.903,0,0,1,21.516,22.21105a2.54428,2.54428,0,0,0,.56325-3.17263l-.014-.02395a2.544,2.544,0,0,0-2.19571-1.26087Z" fill="#3a2315"/><path d="M39.83793,8.90923V37.44071a4.225,4.225,0,0,1-4.00744,4.41323h0A4.22505,4.22505,0,0,1,31.823,37.44071V8.90923A4.225,4.225,0,0,1,35.83048,4.496h0A4.225,4.225,0,0,1,39.83793,8.90923Z" fill="#f7b064"/><path d="M35.83078,43.34963a5.72336,5.72336,0,0,1-5.50332-5.9088V8.90938A5.72343,5.72343,0,0,1,35.83019,3,5.72351,5.72351,0,0,1,41.3335,8.90938V37.44083A5.72326,5.72326,0,0,1,35.83078,43.34963Zm0-37.35813A2.741,2.741,0,0,0,33.319,8.90938V37.44083a2.74036,2.74036,0,0,0,2.51122,2.9173,2.7408,2.7408,0,0,0,2.51181-2.9173V8.90938A2.74055,2.74055,0,0,0,35.83078,5.9915Z" fill="#3a2315"/></g></svg>