<svg xmlns="http://www.w3.org/2000/svg" width="1in" height="1in" viewBox="0 0 72 72"><title>Icons</title><g id="Admin_-_Dashboard" data-name="Admin - Dashboard"><rect x="48.6015" y="5.7788" width="19.93372" height="60.00002" fill="#fff"/><rect x="7.27632" y="32.18594" width="19.93372" height="33.59288" fill="#fff"/><rect x="7.27632" y="5.09584" width="19.93372" height="16.7324" fill="#fff"/><path d="M4.05108,5.7788H15.87887a3.56266,3.56266,0,0,1,3.56266,3.56266v8.98816a3.56266,3.56266,0,0,1-3.56266,3.56266H4.05108a0,0,0,0,1,0,0V5.7788A0,0,0,0,1,4.05108,5.7788Z" fill="#f8b266"/><path d="M4.05108,31.62859H15.87887a3.56266,3.56266,0,0,1,3.56266,3.56266V62.21616a3.56266,3.56266,0,0,1-3.56266,3.56266H4.05108a0,0,0,0,1,0,0V31.62859A0,0,0,0,1,4.05108,31.62859Z" fill="#f8b266"/><path d="M36.29773,4.81717H57.34261a3.56266,3.56266,0,0,1,3.56266,3.56266V62.21616a3.56266,3.56266,0,0,1-3.56266,3.56266H36.29773a0,0,0,0,1,0,0V4.81717A0,0,0,0,1,36.29773,4.81717Z" fill="#f8b266"/><path d="M42.45391,53.0394a1.564,1.564,0,0,1-1.46576-1.64671V15.3722a1.4757,1.4757,0,1,1,2.93152,0V51.39269A1.564,1.564,0,0,1,42.45391,53.0394Z" fill="#fedeb5"/><path d="M42.45391,61.1681a1.564,1.564,0,0,1-1.46576-1.64671V57.353a1.4757,1.4757,0,1,1,2.93152,0v2.16838A1.564,1.564,0,0,1,42.45391,61.1681Z" fill="#fedeb5"/><path d="M8.79017,55.7063a1.564,1.564,0,0,1-1.46575-1.64671V39.43153a1.564,1.564,0,0,1,1.46575-1.64671,1.564,1.564,0,0,1,1.46576,1.64671V54.05959A1.564,1.564,0,0,1,8.79017,55.7063Z" fill="#fedeb5"/><path d="M8.79017,61.97666A1.564,1.564,0,0,1,7.32442,60.33v-.49144A1.564,1.564,0,0,1,8.79017,58.1918a1.564,1.564,0,0,1,1.46576,1.64671V60.33A1.564,1.564,0,0,1,8.79017,61.97666Z" fill="#fedeb5"/><path d="M24.45717,23.53885H6.21765A4.50676,4.50676,0,0,1,1.999,18.79941v-11.06A4.50676,4.50676,0,0,1,6.21765,3H24.45717A4.50676,4.50676,0,0,1,28.6758,7.73944v11.06A4.50676,4.50676,0,0,1,24.45717,23.53885ZM6.21765,6.29342a1.37473,1.37473,0,0,0-1.28711,1.446v11.06a1.37473,1.37473,0,0,0,1.28711,1.446H24.45717a1.37473,1.37473,0,0,0,1.28711-1.446v-11.06a1.37473,1.37473,0,0,0-1.28711-1.446Z" fill="#3a2418"/><path d="M24.45717,67.4256H6.21765A4.50736,4.50736,0,0,1,1.999,62.68552V34.72168A4.50736,4.50736,0,0,1,6.21765,29.9816H24.45717a4.50736,4.50736,0,0,1,4.21863,4.74008V62.68552A4.50736,4.50736,0,0,1,24.45717,67.4256ZM6.21765,33.275a1.37534,1.37534,0,0,0-1.28711,1.44666V62.68552a1.37534,1.37534,0,0,0,1.28711,1.44666H24.45717a1.37534,1.37534,0,0,0,1.28711-1.44666V34.72168A1.37534,1.37534,0,0,0,24.45717,33.275Z" fill="#3a2418"/><path d="M65.78235,67.4256H39.05061A4.50736,4.50736,0,0,1,34.832,62.68552V7.73944A4.50676,4.50676,0,0,1,39.05061,3H65.78235A4.50676,4.50676,0,0,1,70.001,7.73944V62.68552A4.50736,4.50736,0,0,1,65.78235,67.4256ZM39.05061,6.29342a1.37474,1.37474,0,0,0-1.28712,1.446V62.68552a1.37534,1.37534,0,0,0,1.28712,1.44666H65.78235a1.37534,1.37534,0,0,0,1.28711-1.44666V7.73944a1.37473,1.37473,0,0,0-1.28711-1.446Z" fill="#3a2418"/></g></svg>