<svg xmlns="http://www.w3.org/2000/svg" width="1in" height="1in" viewBox="0 0 72 72"><title>Icons</title><g id="Cashier_-_Matriculations" data-name="Cashier - Matriculations"><path d="M18.39541,12.60123S48.188,36.67918,42.18663,53.1468,36.00008,66.29,36.00008,66.29s14.85909-1.19536,23.1686-10.5096S74.1185,16.47675,43.25626,5.5369C43.25626,5.5369,26.11148,1.67013,18.39541,12.60123Z" fill="#fff"/><path d="M25.618,8.98081a30.22629,30.22629,0,0,0-3.18465.17033A29.939,29.939,0,0,0,36.00008,65.77962a30.26753,30.26753,0,0,0,3.18469-.17033A29.939,29.939,0,0,0,25.618,8.98081Z" fill="#f8b266"/><path d="M36,67.89746A32.41717,32.41717,0,1,1,68.41717,35.48029,32.454,32.454,0,0,1,36,67.89746ZM36,6.27815A29.20214,29.20214,0,1,0,65.20214,35.48029,29.23517,29.23517,0,0,0,36,6.27815Z" fill="#231f20"/><path d="M48.70125,24.0759a9.65118,9.65118,0,0,0-4.17954-3.97734,16.24251,16.24251,0,0,0-7.62283-1.56733h-11.435a1.81517,1.81517,0,0,0-1.3733.579,1.93616,1.93616,0,0,0-.56232,1.40657v1.676H30.934v.00879h5.5137c3.47814,0,5.97355.68759,7.41718,2.04331a7.04831,7.04831,0,0,1,0,10.19892c-1.44363,1.35572-3.939,2.04331-7.41718,2.04331H27.4494v-.00754H23.52825v14.732a1.90465,1.90465,0,0,0,1.93562,1.93529,1.94036,1.94036,0,0,0,1.40688-.562,1.81347,1.81347,0,0,0,.57865-1.37329V40.15733h9.44948A16.23632,16.23632,0,0,0,44.52171,38.59a9.64413,9.64413,0,0,0,4.17954-3.97734,11.583,11.583,0,0,0,0-10.53676Z" fill="#010101"/><rect x="16.89505" y="24.82476" width="39.03821" height="3.53012" rx="1.76506" ry="1.76506" fill="#010101"/><rect x="16.89505" y="30.66539" width="39.03821" height="3.53012" rx="1.76506" ry="1.76506" fill="#010101"/></g></svg>