<svg xmlns="http://www.w3.org/2000/svg" width="1in" height="1in" viewBox="0 0 72 72"><title>Icons</title><g id="Cashier_-_Balance_Masterlist" data-name="Cashier - Balance Masterlist"><rect x="52.4784" y="4.86822" width="15.74753" height="61.42994" fill="#fff"/><path d="M57.45748,11.5695V61.278a5.43111,5.43111,0,0,1-5.20443,5.63239H3.7073V5.9371H52.25305A5.43111,5.43111,0,0,1,57.45748,11.5695Z" fill="#f8b266"/><ellipse cx="10.1779" cy="11.53642" rx="1.88882" ry="1.97422" fill="#fff"/><path d="M68.22567,67.829H17.20491a1.53214,1.53214,0,0,1,0-3.06129h49.82V6.39867H17.77981a1.413,1.413,0,0,1-.83862.27564,1.49853,1.49853,0,0,1-1.46443-1.53065,1.77035,1.77035,0,0,1,1.72815-1.80628H68.22567a1.77035,1.77035,0,0,1,1.72815,1.80628V66.02273A1.77036,1.77036,0,0,1,68.22567,67.829Zm-49.82-62.68535v0Z" fill="#3a2418"/><path d="M16.51616,67.829H3.83963a1.63569,1.63569,0,0,1-1.59658-1.66876V5.00614A1.63569,1.63569,0,0,1,3.83963,3.33738H16.51616a1.63569,1.63569,0,0,1,1.59658,1.66876V9.51138a1.46587,1.46587,0,1,1-2.92887,0V6.39867H5.17192V64.76772H16.51616a1.53214,1.53214,0,0,1,0,3.06129Z" fill="#3a2418"/><path d="M10.1779,15.17478A3.67613,3.67613,0,0,1,6.59,11.42469,3.67613,3.67613,0,0,1,10.1779,7.67461a3.67612,3.67612,0,0,1,3.58787,3.75008A3.67613,3.67613,0,0,1,10.1779,15.17478Zm0-5.05114a1.30232,1.30232,0,1,0,1.24477,1.30105A1.27518,1.27518,0,0,0,10.1779,10.12364Z" fill="#3a2418"/><path d="M16.64831,20.889a1.49852,1.49852,0,0,1-1.46444-1.53065V15.07253a1.46587,1.46587,0,1,1,2.92887,0v4.28581A1.49852,1.49852,0,0,1,16.64831,20.889Z" fill="#3a2418"/><path d="M16.64831,30.83819a1.49852,1.49852,0,0,1-1.46444-1.53065V25.02173a1.46587,1.46587,0,1,1,2.92887,0v4.28581A1.49852,1.49852,0,0,1,16.64831,30.83819Z" fill="#3a2418"/><path d="M16.64831,40.83821a1.49852,1.49852,0,0,1-1.46444-1.53064V35.02176a1.46587,1.46587,0,1,1,2.92887,0v4.28581A1.49852,1.49852,0,0,1,16.64831,40.83821Z" fill="#3a2418"/><path d="M16.64831,50.864a1.49853,1.49853,0,0,1-1.46444-1.53065V45.04749a1.46587,1.46587,0,1,1,2.92887,0V49.3333A1.49853,1.49853,0,0,1,16.64831,50.864Z" fill="#3a2418"/><path d="M16.64831,60.66008a1.49852,1.49852,0,0,1-1.46444-1.53064V54.84363a1.46587,1.46587,0,1,1,2.92887,0v4.28581A1.49852,1.49852,0,0,1,16.64831,60.66008Z" fill="#3a2418"/><path d="M16.64831,67.829a1.49852,1.49852,0,0,1-1.46444-1.53065V64.07893a1.46587,1.46587,0,1,1,2.92887,0v2.21943A1.49852,1.49852,0,0,1,16.64831,67.829Z" fill="#3a2418"/><path d="M35.78381,15.32784H24.3612a1.53214,1.53214,0,0,1,0-3.06129H35.78381a1.53214,1.53214,0,0,1,0,3.06129Z" fill="#3a2418"/><path d="M35.78381,21.80738H24.3612a1.53215,1.53215,0,0,1,0-3.0613H35.78381a1.53215,1.53215,0,0,1,0,3.0613Z" fill="#3a2418"/><path d="M62.43657,31.017H24.3612a1.53215,1.53215,0,0,1,0-3.0613H62.43657a1.53215,1.53215,0,0,1,0,3.0613Z" fill="#3a2418"/><path d="M62.43657,39.00144H24.3612a1.53214,1.53214,0,0,1,0-3.06129H62.43657a1.53214,1.53214,0,0,1,0,3.06129Z" fill="#3a2418"/><path d="M62.43657,47.80265H24.3612a1.53214,1.53214,0,0,1,0-3.06129H62.43657a1.53214,1.53214,0,0,1,0,3.06129Z" fill="#3a2418"/><path d="M46.91353,56.47652H24.3612a1.53215,1.53215,0,0,1,0-3.0613H46.91353a1.53215,1.53215,0,0,1,0,3.0613Z" fill="#3a2418"/><path d="M59.36125,56.47652H52.47839a1.53215,1.53215,0,0,1,0-3.0613h6.88286a1.53215,1.53215,0,0,1,0,3.0613Z" fill="#3a2418"/><path d="M43.91144,15.32784h-3.954a1.53214,1.53214,0,0,1,0-3.06129h3.954a1.53214,1.53214,0,0,1,0,3.06129Z" fill="#3a2418"/><path d="M43.91144,21.80738h-3.954a1.53215,1.53215,0,0,1,0-3.0613h3.954a1.53215,1.53215,0,0,1,0,3.0613Z" fill="#3a2418"/></g></svg>