<svg xmlns="http://www.w3.org/2000/svg" width="1in" height="1in" viewBox="0 0 72 72"><title>Icons</title><g id="Admin_-_User_Accounts" data-name="Admin - User Accounts"><path d="M23.58085,13.1123,41,35.475S55.16667,28,50.33333,14,26.66667,8,26.66667,8Z" fill="#fff"/><path d="M50.5,67.91773H62.76658s-.01621-27.86305-26.7664-25.64039Z" fill="#fff"/><circle cx="32.32363" cy="22.57935" r="12.89567" fill="#f8b266"/><path d="M23.00223,44.517C9.09693,51.10253,9.23345,67.91773,9.23345,67.91773H55.20833c-2.25241-24.543-20.83476-26.13848-20.83476-26.13848Z" fill="#f8b266"/><path d="M17.38666,60.76878a1.878,1.878,0,0,1-1.77545-2.4863A20.842,20.842,0,0,1,29.31482,45.16837a1.877,1.877,0,0,1,.92567,3.63816A17.04193,17.04193,0,0,0,19.16212,59.4996,1.87754,1.87754,0,0,1,17.38666,60.76878Z" fill="#fedeb5"/><path d="M15.31829,67.11467a1.83156,1.83156,0,0,1-.31381-.0264,1.87645,1.87645,0,0,1-1.53936-2.16222,7.59738,7.59738,0,0,1,.64742-1.95326,1.87706,1.87706,0,0,1,3.36028,1.67391,3.9992,3.9992,0,0,0-.30575.90258A1.87764,1.87764,0,0,1,15.31829,67.11467Z" fill="#fedeb5"/><path d="M32.22161,30.32389a1.881,1.881,0,0,1-.55944-.08578c-6.60581-2.05958-7.42553-9.08075-6.93649-12.50629a1.87713,1.87713,0,0,1,3.71736.525c-.0385.28375-.85492,6.77921,4.33654,8.3974a1.87746,1.87746,0,0,1-.558,3.66969Z" fill="#fedeb5"/><path d="M36.82357,32.10485a1.86122,1.86122,0,0,1-.3732-.03813l-.367-.074a1.87673,1.87673,0,1,1,.74274-3.67923l.367.07406a1.87726,1.87726,0,0,1-.36954,3.71735Z" fill="#fedeb5"/><path d="M36.00018,37.35166a17.1977,17.1977,0,1,1,17.1977-17.19733A17.217,17.217,0,0,1,36.00018,37.35166Zm0-30.64138A13.44369,13.44369,0,1,0,49.44387,20.15433,13.459,13.459,0,0,0,36.00018,6.71028Z" fill="#010101"/><path d="M62.76658,69.04373a1.87687,1.87687,0,0,1-1.877-1.877,24.88957,24.88957,0,0,0-49.77914,0,1.877,1.877,0,0,1-3.754,0,28.64358,28.64358,0,0,1,57.28716,0A1.87686,1.87686,0,0,1,62.76658,69.04373Z" fill="#010101"/></g></svg>