<svg xmlns="http://www.w3.org/2000/svg" width="1in" height="1in" viewBox="0 0 72 72"><title>Icons</title><g id="Admin_-_Reports" data-name="Admin - Reports"><path d="M4.848,30.85247a1.34363,1.34363,0,0,1-1.96486-1.19139V10.04162A4.94633,4.94633,0,0,1,7.9166,5.18733H55.84942a.71082.71082,0,0,1,.38688,1.30713L43.53023,14.73793a6.55561,6.55561,0,0,1-4.04307,1.03882l-7.24789-.52655a8.40735,8.40735,0,0,0-4.49633.93048Z" fill="#f8b266"/><path d="M7.41439,23.2721a1.36688,1.36688,0,0,1-1.36681-1.3668V14.5307a1.36681,1.36681,0,1,1,2.73361,0v7.3746A1.36687,1.36687,0,0,1,7.41439,23.2721Z" fill="#fedeb5"/><path d="M7.41506,10.43562A1.36888,1.36888,0,0,1,6.095,8.7111c.08609-.317.66538-1.89737,3.65927-1.89737a1.36681,1.36681,0,0,1,0,2.73361,2.58576,2.58576,0,0,0-1.1419.17952A1.36979,1.36979,0,0,1,7.41506,10.43562ZM8.73247,9.42921v0Zm.00067-.002v0Zm.00067-.002-.00067.002Z" fill="#fedeb5"/><path d="M6.02767,57.049v8.586a1.64686,1.64686,0,0,0,1.41989,1.804h5.23088a1.64687,1.64687,0,0,0,1.41989-1.804V51.64a1.64687,1.64687,0,0,0-1.41989-1.804H7.44756A1.64687,1.64687,0,0,0,6.02767,51.64Z" fill="#f8b266"/><path d="M18.72289,53.87906V65.08457c0,1.30027.63571,2.35435,1.4199,2.35435h5.23087c.78419,0,1.4199-1.05408,1.4199-2.35435V46.82c0-1.30027-.63571-2.35435-1.4199-2.35435H20.14279c-.78419,0-1.4199,1.05408-1.4199,2.35435Z" fill="#f8b266"/><path d="M31.01444,48.66335V64.179c0,1.80041.6357,3.25993,1.41989,3.25993h5.23088c.78418,0,1.41989-1.45952,1.41989-3.25993V38.889c0-1.80041-.63571-3.25994-1.41989-3.25994H32.43433c-.78419,0-1.41989,1.45953-1.41989,3.25994Z" fill="#f8b266"/><path d="M43.10693,50.48206v14.0127c0,1.626.63571,2.94416,1.4199,2.94416H49.7577c.78419,0,1.4199-1.31814,1.4199-2.94416V41.65451c0-1.626-.63571-2.94416-1.4199-2.94416H44.52683c-.78419,0-1.4199,1.31815-1.4199,2.94416Z" fill="#f8b266"/><path d="M55.19943,44.86544V63.51957c0,2.1646.63571,3.91935,1.41989,3.91935H61.8502c.78419,0,1.41989-1.75475,1.41989-3.91935V33.11393c0-2.1646-.6357-3.91935-1.41989-3.91935H56.61932c-.78418,0-1.41989,1.75475-1.41989,3.91935Z" fill="#f8b266"/><path d="M2.88285,31.36948A1.70838,1.70838,0,0,1,1.17434,29.661V10.04187c0-4.75045,4.31731-6.36618,6.60044-6.55706l.14215-.006H55.84916a1.70851,1.70851,0,0,1,0,3.417H8.003c-.53991.06206-3.41167.51655-3.41167,3.146V29.661A1.70838,1.70838,0,0,1,2.88285,31.36948Z" fill="#231f20"/><path d="M6.02756,67.08256a1.70837,1.70837,0,0,1-1.7085-1.7085v-9.6644a1.70851,1.70851,0,0,1,3.417,0v9.6644A1.70838,1.70838,0,0,1,6.02756,67.08256Z" fill="#3a2418"/><path d="M18.99752,67.4256A1.70837,1.70837,0,0,1,17.289,65.71709v-16.122a1.70851,1.70851,0,0,1,3.417,0v16.122A1.70837,1.70837,0,0,1,18.99752,67.4256Z" fill="#3a2418"/><path d="M31.41821,67.4256a1.70837,1.70837,0,0,1-1.7085-1.70851V40.95379a1.7085,1.7085,0,1,1,3.417,0v24.7633A1.70837,1.70837,0,0,1,31.41821,67.4256Z" fill="#3a2418"/><path d="M43.30566,67.4256a1.70837,1.70837,0,0,1-1.7085-1.70851V44.46557a1.70851,1.70851,0,1,1,3.417,0V65.71709A1.70837,1.70837,0,0,1,43.30566,67.4256Z" fill="#3a2418"/><path d="M55.19913,67.4256a1.70837,1.70837,0,0,1-1.70851-1.70851V33.95493a1.70851,1.70851,0,1,1,3.417,0V65.71709A1.70837,1.70837,0,0,1,55.19913,67.4256Z" fill="#3a2418"/><path d="M67.99222,67.4256a1.70837,1.70837,0,0,1-1.7085-1.70851v-42.798a1.70851,1.70851,0,0,1,3.417,0v42.798A1.70838,1.70838,0,0,1,67.99222,67.4256Z" fill="#3a2418"/><path d="M6.0289,44.43086a1.70855,1.70855,0,0,1-.93835-3.13737L30.4812,24.64024a1.70755,1.70755,0,0,1,1.12721-.269l11.23943,1.25936L65.04438,9.865l-2.36654-.5566A1.70848,1.70848,0,1,1,63.46,5.98217L69.50785,7.405a1.70843,1.70843,0,0,1,.598,3.056L44.29473,28.794a1.69489,1.69489,0,0,1-1.17927.305L31.84,27.83568,6.96457,44.15123A1.7,1.7,0,0,1,6.0289,44.43086Z" fill="#3a2418"/><path d="M68.15573,17.08945a1.70764,1.70764,0,0,1-1.69115-1.96612l.963-6.31279a1.70868,1.70868,0,0,1,3.3783.51522l-.963,6.31279A1.70952,1.70952,0,0,1,68.15573,17.08945Z" fill="#3a2418"/></g></svg>