<svg xmlns="http://www.w3.org/2000/svg" width="1in" height="1in" viewBox="0 0 72 72"><title>Icons</title><g id="Registrar_-_Requirements" data-name="Registrar - Requirements"><polygon points="34.879 4.907 34.879 14.358 47.383 14.358 47.383 8.262 42.804 6.785 41.131 4.3 34.879 4.907" fill="#fff"/><path d="M12.751,10.26373h9.58469v3.5075H15.79492V61.18166h37.3462V14.82792h-5.758v-4.6964h7.86648s3.87453-.587,3.87453,5.51828V62.96609s-.23482,3.75712-5.40086,3.75712H13.63253s-2.99877.58705-2.99877-4.10935V12.20173S10.524,10.86557,12.751,10.26373Z" fill="#f8b266"/><polygon points="17.091 14.922 53.141 14.922 53.141 61.745 15.795 61.745 15.795 14.335 17.091 14.922" fill="#fff"/><path d="M36.75752,4.30013V7.97755a2.154,2.154,0,0,0,2.154,2.154h1.00509a1.47864,1.47864,0,0,1,1.47864,1.47863v2.45461H22.33564V7.95943h3.444l1.96662-1.96662V4.42493Z" fill="#f8b266"/><path d="M47.07012,23.438H22.33556a1.17411,1.17411,0,0,1,0-2.34821H47.07012a1.17411,1.17411,0,0,1,0,2.34821Z" fill="#3a2418"/><path d="M47.07012,30.4826H22.33556a1.1741,1.1741,0,1,1,0-2.3482H47.07012a1.1741,1.1741,0,0,1,0,2.3482Z" fill="#3a2418"/><path d="M47.07012,38.04593H22.33556a1.1741,1.1741,0,0,1,0-2.3482H47.07012a1.1741,1.1741,0,0,1,0,2.3482Z" fill="#3a2418"/><path d="M47.07012,45.09054H22.33556a1.17411,1.17411,0,0,1,0-2.34821H47.07012a1.17411,1.17411,0,0,1,0,2.34821Z" fill="#3a2418"/><path d="M47.07012,52.28191h-3.268a1.1741,1.1741,0,1,1,0-2.3482h3.268a1.1741,1.1741,0,0,1,0,2.3482Z" fill="#3a2418"/><path d="M38.75349,52.28191H22.33556a1.1741,1.1741,0,1,1,0-2.3482H38.75349a1.1741,1.1741,0,0,1,0,2.3482Z" fill="#3a2418"/><path d="M55.30351,67.89746h-41.671a4.17775,4.17775,0,0,1-4.17287-4.1731V13.13021a4.17737,4.17737,0,0,1,4.17287-4.17265h8.703a1.17411,1.17411,0,0,1,0,2.34821h-8.703a1.82669,1.82669,0,0,0-1.82467,1.82444V63.72436a1.82679,1.82679,0,0,0,1.82467,1.8249h41.671a1.82679,1.82679,0,0,0,1.82467-1.8249V13.13021a1.82669,1.82669,0,0,0-1.82467-1.82444H47.07012a1.17411,1.17411,0,0,1,0-2.34821h8.23339a4.17737,4.17737,0,0,1,4.17287,4.17265V63.72436A4.17775,4.17775,0,0,1,55.30351,67.89746Z" fill="#010101"/><path d="M53.14105,62.89606A1.174,1.174,0,0,1,51.967,61.722V60.64142a1.1741,1.1741,0,0,1,2.3482,0V61.722A1.174,1.174,0,0,1,53.14105,62.89606Z" fill="#010101"/><path d="M53.14105,55.80421a1.174,1.174,0,0,1-1.1741-1.1741V43.37158a1.1741,1.1741,0,0,1,2.3482,0V54.63011A1.174,1.174,0,0,1,53.14105,55.80421Z" fill="#010101"/><path d="M47.97019,62.89606H15.795a1.174,1.174,0,0,1-1.1741-1.1741V14.35843a1.174,1.174,0,0,1,1.1741-1.1741H53.14105a1.174,1.174,0,0,1,1.1741,1.1741V38.04a1.1741,1.1741,0,1,1-2.3482,0V15.53253H16.96909V60.54786h31.0011a1.1741,1.1741,0,0,1,0,2.3482Z" fill="#010101"/><path d="M47.07012,15.4541H22.33556a1.174,1.174,0,0,1-1.1741-1.1741V9.41849a3.28247,3.28247,0,0,1,3.27877-3.27877h1.37636a.7111.7111,0,0,0,.71019-.71042A2.306,2.306,0,0,1,28.83027,3.126H40.81505A2.306,2.306,0,0,1,43.11853,5.4293a.7111.7111,0,0,0,.7102.71042h1.13672a3.28247,3.28247,0,0,1,3.27877,3.27877V14.28A1.174,1.174,0,0,1,47.07012,15.4541ZM23.50966,13.1059H45.896V9.41849a.93151.93151,0,0,0-.93057-.93057H43.82873a3.06231,3.06231,0,0,1-3.05817-3.01368H28.87476a3.06231,3.06231,0,0,1-3.05817,3.01368H24.44023a.93151.93151,0,0,0-.93057.93057Z" fill="#010101"/></g></svg>