<svg xmlns="http://www.w3.org/2000/svg" width="1in" height="1in" viewBox="0 0 72 72"><title>Icons</title><g id="Admin_-_Schedules" data-name="Admin - Schedules"><polygon points="52 9.409 52 65.425 64.779 65.425 64.779 10.49 52 9.409" fill="#fff"/><rect x="7.42496" y="10.48961" width="51.50176" height="55.80753" fill="#f8b266"/><path d="M11.84605,54.08506a1.62061,1.62061,0,0,1-1.62074-1.62074V21.24221a1.62075,1.62075,0,0,1,3.24149,0V52.46432A1.62062,1.62062,0,0,1,11.84605,54.08506Z" fill="#fedeb5"/><path d="M11.84605,62.32617a1.62062,1.62062,0,0,1-1.62074-1.62075V58.35534a1.62075,1.62075,0,0,1,3.24149,0v2.35008A1.62063,1.62063,0,0,1,11.84605,62.32617Z" fill="#fedeb5"/><path d="M61.5649,67.91773H10.1256a5.55506,5.55506,0,0,1-5.54884-5.54851V13.33729A5.5552,5.5552,0,0,1,10.1256,7.78814H61.5649a5.55533,5.55533,0,0,1,5.54851,5.54915V62.36922A5.55519,5.55519,0,0,1,61.5649,67.91773ZM10.1256,11.02963a2.31009,2.31009,0,0,0-2.30735,2.30766V62.36922a2.31,2.31,0,0,0,2.30735,2.307H61.5649a2.30988,2.30988,0,0,0,2.307-2.307V13.33729a2.31,2.31,0,0,0-2.307-2.30766Z" fill="#231f20"/><path d="M15.481,15.89882a6.48994,6.48994,0,1,1,3.80717-11.746l.11776.08294a3.31486,3.31486,0,0,1,1.0788,1.0883,1.621,1.621,0,0,1-2.76539,1.68849c-.05128-.04179-.10889-.07724-.164-.11586l-.17031-.12029a3.24863,3.24863,0,1,0-1.90406,5.8809,1.62074,1.62074,0,0,1,0,3.24148Z" fill="#231f20"/><path d="M26.50175,15.89882a6.48994,6.48994,0,1,1,3.80749-11.746l.11775.08294A3.31478,3.31478,0,0,1,31.5058,5.3241a1.621,1.621,0,0,1-2.76539,1.68849c-.05129-.04179-.1089-.07724-.164-.11586l-.1703-.12029a3.24871,3.24871,0,1,0-1.90438,5.8809,1.62074,1.62074,0,1,1,0,3.24148Z" fill="#231f20"/><path d="M37.52281,15.89882a6.48994,6.48994,0,1,1,3.80748-11.746l.11776.08294a3.31478,3.31478,0,0,1,1.07881,1.0883,1.621,1.621,0,0,1-2.7654,1.68849c-.05128-.04179-.10889-.07724-.164-.11586l-.17031-.12029a3.24871,3.24871,0,1,0-1.90437,5.8809,1.62074,1.62074,0,0,1,0,3.24148Z" fill="#231f20"/><path d="M48.54387,15.89882a6.48994,6.48994,0,1,1,3.80748-11.746l.11776.08294a3.31467,3.31467,0,0,1,1.0788,1.0883,1.621,1.621,0,0,1-2.76539,1.68849c-.05128-.04179-.10889-.07724-.164-.11586l-.17031-.12029a3.24871,3.24871,0,1,0-1.90437,5.8809,1.62074,1.62074,0,1,1,0,3.24148Z" fill="#231f20"/><path d="M59.56492,15.89882a6.48994,6.48994,0,1,1,3.80749-11.746l.11775.08294A3.31478,3.31478,0,0,1,64.569,5.3241a1.621,1.621,0,0,1-2.76539,1.68849c-.05128-.04179-.1089-.07724-.164-.11586l-.1703-.12029a3.24871,3.24871,0,1,0-1.90438,5.8809,1.62074,1.62074,0,1,1,0,3.24148Z" fill="#231f20"/><rect x="15.97895" y="24.8061" width="39.87029" height="4.24361" rx="2.1218" ry="2.1218" fill="#231f20"/><rect x="15.97895" y="37.36686" width="39.87029" height="4.24361" rx="2.1218" ry="2.1218" fill="#231f20"/><rect x="15.97895" y="49.92763" width="39.87029" height="4.24361" rx="2.1218" ry="2.1218" fill="#231f20"/></g></svg>