<svg xmlns="http://www.w3.org/2000/svg" width="1in" height="1in" viewBox="0 0 72 72"><title>Icons</title><g id="Admin_-_School_Year" data-name="Admin - School Year"><polygon points="44.883 5.449 45.55 66 61.383 66.475 67.05 58.34 67.05 10 57.578 3 44.883 5.449" fill="#fff"/><path d="M5.20937,59.615l6.53986,6.86034H46.89306A10.65172,10.65172,0,0,0,57.54478,55.82361V14.8182A10.65172,10.65172,0,0,0,46.89306,4.16648H12.13393L5.20937,11.4316Z" fill="#f8b266"/><path d="M12.13393,52.40453a1.73086,1.73086,0,0,1-1.73114-1.73114V14.46373a1.73114,1.73114,0,1,1,3.46228,0V50.67339A1.73087,1.73087,0,0,1,12.13393,52.40453Z" fill="#fedeb5"/><path d="M17.18308,61.78154c-4.97477,0-6.78029-4.14132-6.78029-6.92456a1.73116,1.73116,0,0,1,3.46228-.0107,3.16222,3.16222,0,0,0,3.318,3.473,1.73114,1.73114,0,1,1,0,3.46228Zm-3.318-6.92456h0Z" fill="#fedeb5"/><path d="M57.578,67.91773H14.87321A11.11861,11.11861,0,0,1,3.76675,56.81184V14.10645A11.11873,11.11873,0,0,1,14.87321,3H57.578A11.11872,11.11872,0,0,1,68.68448,14.10645V56.81184A11.1186,11.1186,0,0,1,57.578,67.91773ZM14.87321,5.88523A8.23082,8.23082,0,0,0,6.652,14.10645V56.81184a8.23034,8.23034,0,0,0,8.22122,8.22066H57.578a8.23034,8.23034,0,0,0,8.22122-8.22066V14.10645A8.23082,8.23082,0,0,0,57.578,5.88523Z" fill="#3a2418"/></g></svg>