<svg xmlns="http://www.w3.org/2000/svg" width="1in" height="1in" viewBox="0 0 72 72"><title>Icons</title><g id="Admin_-_SetUp" data-name="Admin - SetUp"><polygon points="49.208 5.226 49.715 11.988 53.724 12.676 55.85 12.057 57.261 13.158 56.711 17.625 61.392 20.386 60.841 24.241 56.917 26.411 56.298 32.237 52.374 32.237 56.598 34.359 59.501 36.449 64.469 30.936 61.46 26.411 66.554 25.967 66.951 17.913 62.149 17.839 61.805 16.6 61.667 15.154 64.469 11.85 59.639 7.476 56.229 9.166 53.874 9.281 53.73 4.926 49.208 5.226" fill="#fff"/><path d="M53.73063,4.948l-.00087-.02158-.00558.00064Z" fill="#f8b266"/><path d="M62.29431,26.03849,63.304,25.959a1.90754,1.90754,0,0,1-.20234-.84387V18.63547a1.91062,1.91062,0,0,1,.38383-1.14372l-1.08664-.33705-.41805-1.32387L64.419,13.114l-.52487.51112-.00034.0004-.0004.00031L61.40927,16.045a1.92736,1.92736,0,1,1-2.68888-2.762l1.11554-1.08637-2.1513-2.229a1.908,1.908,0,0,1-.47781-.883L55.884,10.36121,53.89828,8.956l-.02379-.569v.89436a1.92739,1.92739,0,0,1-3.85478,0V5.67345a1.91611,1.91611,0,0,1,.05754-.44763H45.69989l.01136,4.12508-1.67228.73161-.45288-.45291-3.449-2.16L35.22488,12.556l2.7871,2.89159-.73165,2.43868-4.8016.2787.0162.294,2.60149-.18406.50484.36038,2.73042.10557L48.94906,29.11884l1.64768,1.73194a.91063.91063,0,0,1-.05875,1.3118L48.9898,33.52282a.47776.47776,0,0,0,.31534.83668h.76458a1.92351,1.92351,0,0,1,3.75374-.00333l1.65642-.80129,4.02075,2.89368,4.96885-5.513-2.69775-3.18992Zm-12.57945.19162a4.30255,4.30255,0,1,1,4.30254-4.30255A4.30255,4.30255,0,0,1,49.71486,26.23011Z" fill="#f8b266"/><path d="M52.68761,28.96937a1.377,1.377,0,0,1-.38935-2.69748,2.23969,2.23969,0,0,0,.94918-.46464,1.37686,1.37686,0,0,1,2.52217,1.09061c-.11455.32-.64641,1.41058-2.69157,2.01451A1.36689,1.36689,0,0,1,52.68761,28.96937Zm.48938-2.99918-.00054.00162Zm.00054-.00161-.00054.00107Zm.00054-.00161v0Zm.0855-.17693Z" fill="#fedeb5"/><path d="M21.94887,21.92757h5.851l3.49514-.39439.222,5.30795,2.61574,1.85093,3.94656-3.80889,5.91984,5.78217,1.3767,1.652-3.21231,3.57944.55068,1.74383,4.91025,1.523,1.08592,3.70845-.30578,6.01162-5.82806.45891-.68835,2.24862,3.55357,4.20187-6.54518,7.26194-5.29621-3.81162-2.68,1.2964s.32123,5.50683.13767,5.55272-10.7842.22945-10.7842.22945V61.68712l-.73973-1.93846-1.90066-.05946-4.05958,3.32874L6.48306,55.8812l3.87853-3.418-.68427-3.29067-5.83214-.33466L3.3025,38.97147l6.32485-.36713L10.591,35.392,6.91983,31.58314l6.47052-6.7,4.54313,2.84519.59657.59657,2.20273-.96369-.01493-5.43367Z" fill="#f8b266"/><circle cx="26.00643" cy="43.92761" r="5.66744" fill="#fff"/><path d="M28.947,29.19678a1.92766,1.92766,0,0,1-1.92739-1.92739V22.51707a1.92739,1.92739,0,0,1,3.85478,0v4.75232A1.92766,1.92766,0,0,1,28.947,29.19678Z" fill="#fff"/><path d="M46.17891,50.05389a1.92766,1.92766,0,0,1-1.92739-1.92739V39.59092a1.92739,1.92739,0,1,1,3.85478,0V48.1265A1.92766,1.92766,0,0,1,46.17891,50.05389Z" fill="#fff"/><path d="M37.01091,64.24741a1.92738,1.92738,0,0,1-1.32508-3.32722l4.8389-4.5797-1.60687-1.33906a1.92746,1.92746,0,0,1,2.46839-2.961l3.27344,2.72814A1.92739,1.92739,0,0,1,44.75,57.6489l-6.41513,6.071A1.91834,1.91834,0,0,1,37.01091,64.24741Z" fill="#fff"/><path d="M39.63955,36.28682a1.92739,1.92739,0,0,1-1.34444-3.3084l4.35975-4.24466a1.92735,1.92735,0,1,1,2.68888,2.762L40.984,35.74044A1.92142,1.92142,0,0,1,39.63955,36.28682Z" fill="#fff"/><path d="M42.92,33.09243a1.921,1.921,0,0,1-1.38693-.58886l-4.5883-4.75448a1.92749,1.92749,0,1,1,2.77385-2.677l4.5883,4.75448A1.92738,1.92738,0,0,1,42.92,33.09243Z" fill="#fff"/><path d="M28.947,67.74457a1.92766,1.92766,0,0,1-1.92739-1.92739V60.861a1.92739,1.92739,0,1,1,3.85478,0v4.95615A1.92766,1.92766,0,0,1,28.947,67.74457Z" fill="#fff"/><path d="M12.79378,63.27027a1.92739,1.92739,0,0,1-1.37295-3.28043l3.37293-3.42241a1.92762,1.92762,0,1,1,2.74589,2.70609l-3.37293,3.42241A1.92359,1.92359,0,0,1,12.79378,63.27027Z" fill="#fff"/><path d="M25.39225,53.80541c-.03441,0-.06883-.00107-.10379-.00376-3.42886-.25545-5.9962-1.4563-7.6305-3.56976a10.24934,10.24934,0,0,1-1.74455-7.474,1.37671,1.37671,0,0,1,2.70986.48776,7.53293,7.53293,0,0,0,1.22613,5.31915c1.13793,1.459,3.03682,2.29684,5.64342,2.491a1.37672,1.37672,0,0,1-.10057,2.74965Z" fill="#fedeb5"/><path d="M29.92248,52.76643a1.37705,1.37705,0,0,1-.38989-2.69749,2.95425,2.95425,0,0,0,1.49448-.7873,1.37675,1.37675,0,0,1,2.54314,1.04759c-.13283.3716-.761,1.64237-3.25677,2.38019A1.37048,1.37048,0,0,1,29.92248,52.76643Zm1.05619-3.36648-.00054.00108Zm.00054-.00161-.00054.00107Z" fill="#fedeb5"/><path d="M58.06914,37.81787a1.92738,1.92738,0,0,1-1.32508-3.32722l3.29388-3.11749-.818-.6819a1.92712,1.92712,0,1,1,2.46732-2.961l2.48506,2.071a1.92688,1.92688,0,0,1,.09088,2.88033l-4.8701,4.60874A1.91834,1.91834,0,0,1,58.06914,37.81787Z" fill="#fff"/><path d="M39.68419,37.07628a1.9274,1.9274,0,0,1-1.3724-3.28044l2.56089-2.598a1.92723,1.92723,0,1,1,2.7448,2.70609l-2.56089,2.598A1.92143,1.92143,0,0,1,39.68419,37.07628Z" fill="#fff"/><path d="M31.29488,67.91773h-10.577A1.3766,1.3766,0,0,1,19.3412,66.541V61.15358q-.4356-.16859-.86582-.35977L14.66524,64.604a1.3762,1.3762,0,0,1-1.94675,0L5.23964,57.1251a1.3762,1.3762,0,0,1,0-1.94675l3.81014-3.81068q-.19117-.42913-.35977-.86528H3.30257a1.3766,1.3766,0,0,1-1.37671-1.3767V38.54817a1.3766,1.3766,0,0,1,1.37671-1.37671H8.69q.16859-.4356.35977-.86528L5.23964,32.496a1.3762,1.3762,0,0,1,0-1.94675l7.47885-7.47939a1.41707,1.41707,0,0,1,1.94675,0L18.47592,26.88q.42834-.19037.86528-.35923V21.13337a1.3766,1.3766,0,0,1,1.37671-1.37671h10.577a1.3766,1.3766,0,0,1,1.37671,1.37671v5.38744q.43641.16779.86582.35923l3.81014-3.81014a1.3762,1.3762,0,0,1,1.94675,0l7.47939,7.47939a1.37621,1.37621,0,0,1,0,1.94675L42.963,36.30618q.19118.42915.35977.86528h5.38744a1.3766,1.3766,0,0,1,1.37671,1.37671V49.12569a1.3766,1.3766,0,0,1-1.37671,1.3767H43.32278q-.16859.4356-.35977.86528l3.81068,3.81068a1.37621,1.37621,0,0,1,0,1.94675L39.2943,64.604a1.3762,1.3762,0,0,1-1.94675,0l-3.81014-3.81014q-.42915.19117-.86582.35977V66.541A1.3766,1.3766,0,0,1,31.29488,67.91773Zm-9.20027-2.75341h7.82357v-4.983a1.3762,1.3762,0,0,1,.95347-1.31,15.658,15.658,0,0,0,2.3232-.96477,1.37806,1.37806,0,0,1,1.601.25222l3.52512,3.52512,5.53264-5.5321-3.52566-3.52566a1.37663,1.37663,0,0,1-.25222-1.601,15.70492,15.70492,0,0,0,.96531-2.32319,1.37671,1.37671,0,0,1,1.31-.95294h4.9825v-7.8241H42.351a1.37671,1.37671,0,0,1-1.31-.95294,15.705,15.705,0,0,0-.96531-2.3232,1.37663,1.37663,0,0,1,.25222-1.601L43.853,31.52266,38.32093,25.99l-3.52512,3.52513a1.37929,1.37929,0,0,1-1.601.25221,15.71457,15.71457,0,0,0-2.32373-.96477,1.3774,1.3774,0,0,1-.95294-1.31v-4.9825H22.09461v4.9825a1.37671,1.37671,0,0,1-.95294,1.31,15.79335,15.79335,0,0,0-2.32427.96477,1.37664,1.37664,0,0,1-1.60042-.25221L13.69186,25.99l-5.5321,5.53264,3.52512,3.52512a1.37663,1.37663,0,0,1,.25222,1.601,15.705,15.705,0,0,0-.96531,2.3232,1.37671,1.37671,0,0,1-1.31.95294H4.67927V47.749h4.9825a1.37671,1.37671,0,0,1,1.31.95294,15.70492,15.70492,0,0,0,.96531,2.32319,1.37663,1.37663,0,0,1-.25222,1.601L8.15976,56.15173l5.5321,5.5321L17.217,58.15871a1.37555,1.37555,0,0,1,1.60042-.25222,15.77034,15.77034,0,0,0,2.32374.96477,1.3762,1.3762,0,0,1,.95347,1.31Z" fill="#3a2418"/><path d="M26.00639,51.686a7.84911,7.84911,0,1,1,7.84885-7.84884A7.85753,7.85753,0,0,1,26.00639,51.686Zm0-12.94481a5.0957,5.0957,0,1,0,5.09543,5.096A5.10134,5.10134,0,0,0,26.00639,38.74123Z" fill="#3a2418"/><path d="M53.72982,40.54063a1.3766,1.3766,0,0,1-1.3767-1.37671V34.33577a1.3774,1.3774,0,0,1,.95294-1.31,11.6731,11.6731,0,0,0,1.7155-.712A1.37747,1.37747,0,0,1,56.622,32.566l2.44151,2.4415,3.73162-3.73109-2.442-2.442a1.37566,1.37566,0,0,1-.25168-1.601A11.63924,11.63924,0,0,0,60.81287,25.52a1.376,1.376,0,0,1,1.31-.954h3.45145V19.28933H62.12289a1.376,1.376,0,0,1-1.31-.954,11.6108,11.6108,0,0,0-.712-1.71443,1.37593,1.37593,0,0,1,.25221-1.60042L62.79458,12.579,59.06349,8.84787,56.622,11.28938a1.37762,1.37762,0,0,1-1.60042.25221,11.6108,11.6108,0,0,0-1.71443-.712,1.376,1.376,0,0,1-.954-1.31V6.06811H47.07646V9.51956a1.376,1.376,0,0,1-.954,1.31,11.63969,11.63969,0,0,0-1.71335.71148,1.37385,1.37385,0,0,1-1.601-.25168l-2.442-2.442L36.635,12.579l2.4415,2.44151a1.37593,1.37593,0,0,1,.25222,1.60042,11.6731,11.6731,0,0,0-.712,1.7155,1.37738,1.37738,0,0,1-1.31.95294H32.47853a1.37671,1.37671,0,1,1,0-2.75341h3.865q.05082-.12583.10379-.2506l-2.73244-2.733a1.3762,1.3762,0,0,1,0-1.94675l5.67784-5.67838a1.41708,1.41708,0,0,1,1.94674,0l2.733,2.733q.125-.05323.25061-.10433V4.6914a1.3766,1.3766,0,0,1,1.3767-1.3767h8.03007a1.3766,1.3766,0,0,1,1.37671,1.3767V8.55586q.12584.05082.2506.10433l2.733-2.733a1.41709,1.41709,0,0,1,1.94675,0l5.67838,5.67838a1.37621,1.37621,0,0,1,0,1.94675l-2.733,2.733q.05324.125.10433.2506h3.86446a1.3766,1.3766,0,0,1,1.3767,1.37671V25.9427a1.37661,1.37661,0,0,1-1.3767,1.37671H63.08659q-.05082.12583-.10433.2506l2.733,2.733a1.37621,1.37621,0,0,1,0,1.94675l-5.67838,5.67784a1.37622,1.37622,0,0,1-1.94675,0l-2.733-2.73244q-.125.05323-.2506.10379v3.865A1.3766,1.3766,0,0,1,53.72982,40.54063Z" fill="#3a2418"/><path d="M49.71479,28.218a6.29037,6.29037,0,1,1,6.29036-6.29037A6.29732,6.29732,0,0,1,49.71479,28.218Zm0-9.82732a3.537,3.537,0,1,0,3.53695,3.537A3.54065,3.54065,0,0,0,49.71479,18.39071Z" fill="#3a2418"/></g></svg>