<svg xmlns="http://www.w3.org/2000/svg" width="1in" height="1in" viewBox="0 0 72 72"><title>Icons</title><g id="Admin_-_Student_Masterlist" data-name="Admin - Student Masterlist"><polygon points="33.121 4.833 25.833 62.333 43 65.425 58.623 65.425 59.833 32.129 67.667 24.806 67.667 6.242 63 4.833 33.121 4.833" fill="#fff"/><rect x="6.62188" y="5.78285" width="46.27587" height="60.47352" fill="#f8b266"/><path d="M31.63233,19.04328s9.38669,2.27329,5.39942,13.90281l3.82113-2.3259,1.226-3.23966-.3953-6.31317-2.90738-2.492-3.655-.99681Z" fill="#fff"/><path d="M31.63233,40.00687a14.49921,14.49921,0,0,1,8.3068,12.33194s5.06715,1.8727,6.56238,1.62349V49.31049l-.83068-3.15658-2.99045-3.655-3.07352-2.24283L36.118,39.25926H32.54608Z" fill="#fff"/><path d="M13.02516,53.547A1.66124,1.66124,0,0,1,11.3638,51.8856V14.42192a1.66137,1.66137,0,0,1,3.32273,0V51.8856A1.66125,1.66125,0,0,1,13.02516,53.547Z" fill="#fedeb5"/><path d="M13.02516,61.43842a1.66123,1.66123,0,0,1-1.66136-1.66136V56.86968a1.66137,1.66137,0,0,1,3.32273,0v2.90738A1.66124,1.66124,0,0,1,13.02516,61.43842Z" fill="#fedeb5"/><path d="M56.87665,67.91773H9.365a5.07484,5.07484,0,0,1-5.0691-5.0691V7.988A5.07483,5.07483,0,0,1,9.365,2.919H56.87665A5.07483,5.07483,0,0,1,61.94574,7.988V62.84863A5.07483,5.07483,0,0,1,56.87665,67.91773ZM9.365,6.24167A1.7482,1.7482,0,0,0,7.6186,7.988V62.84863A1.74821,1.74821,0,0,0,9.365,64.595H56.87665A1.7482,1.7482,0,0,0,58.623,62.84863V7.988a1.7482,1.7482,0,0,0-1.74637-1.74637Z" fill="#3a2418"/><path d="M58.623,37.68746V8.03022a1.67924,1.67924,0,0,0-1.74637-1.78855V2.919h7.25223a4.9995,4.9995,0,0,1,4.99381,4.99381V24.01563a6.3848,6.3848,0,0,1-1.74637,4.39611Zm3.32272-4.18131h0ZM61.61412,6.24167a5.589,5.589,0,0,1,.331,1.69705l.00065,21.38612,3.01382-3.19357A3.07159,3.07159,0,0,0,65.8,24.01563V7.91276a1.67287,1.67287,0,0,0-1.67109-1.67109Z" fill="#3a2418"/><path d="M33.81618,35.45176a9.92436,9.92436,0,1,1,9.924-9.92468A9.93558,9.93558,0,0,1,33.81618,35.45176Zm0-16.526a6.60164,6.60164,0,1,0,6.60132,6.60131A6.60923,6.60923,0,0,0,33.81618,18.92577Z" fill="#3a2418"/><path d="M46.05379,53.99994a1.66124,1.66124,0,0,1-1.66136-1.66136c0-6.83169-5.59995-11.93584-10.60675-11.93584-5.00744,0-10.6074,5.10415-10.6074,11.93584a1.66136,1.66136,0,0,1-3.32272,0c0-8.12833,6.50916-15.25856,13.93012-15.25856,7.42031,0,13.92947,7.13023,13.92947,15.25856A1.66124,1.66124,0,0,1,46.05379,53.99994Z" fill="#3a2418"/></g></svg>