<svg xmlns="http://www.w3.org/2000/svg" width="1in" height="1in" viewBox="0 0 72 72"><title>Icons</title><g id="Cashier_-_Transaction_History" data-name="Cashier - Transaction History"><path d="M29.51953,7.27109l20.06093,21.1755L46.31318,53.19345,40.7253,63.90355l.95741,3.10438s25.59844-2.61629,28.15285-29.86842c0,0,2.76181-25.33777-28.15285-32.4261Z" fill="#fff"/><path d="M30.73949,7.24016c-.40915,0-.81475.01471-1.22.03093A30.17542,30.17542,0,0,0,40.0527,65.72283c.40919,0,.81486-.01456,1.22008-.03077A30.17554,30.17554,0,0,0,30.73949,7.24016Z" fill="#f8b266"/><path d="M14.848,38.51377a4.65856,4.65856,0,0,1-4.3516-2.99645l-1.648-4.31608c-.91737-2.40287.59506-4.72166,2.17831-6.74792A44.17472,44.17472,0,0,0,14.31374,19.8l4.88343,12.39471A4.65914,4.65914,0,0,1,14.848,38.51377Z" fill="#fff"/><path d="M52.34549,26.265a8.3753,8.3753,0,0,0-3.627-3.45154,14.09517,14.09517,0,0,0-6.6151-1.36014H32.18a1.57522,1.57522,0,0,0-1.19175.50242,1.68021,1.68021,0,0,0-.488,1.22063v1.45441H36.927v.00763h4.78481c3.01833,0,5.18386.59669,6.43664,1.77318a6.11652,6.11652,0,0,1,0,8.85065c-1.25278,1.17649-3.41831,1.77319-6.43664,1.77319H33.90308v-.00654H30.5003V49.81335A1.65285,1.65285,0,0,0,32.18,51.4928a1.68389,1.68389,0,0,0,1.2209-.4877,1.57376,1.57376,0,0,0,.50215-1.19175V40.22051h8.20029a14.09,14.09,0,0,0,6.6151-1.36013,8.36928,8.36928,0,0,0,3.627-3.45155,10.05175,10.05175,0,0,0,0-9.14383Z" fill="#010101"/><rect x="24.74399" y="26.91486" width="33.87745" height="3.06345" rx="1.53172" ry="1.53172" fill="#010101"/><rect x="24.74399" y="31.98338" width="33.87745" height="3.06345" rx="1.53172" ry="1.53172" fill="#010101"/><path d="M39.02153,67.90289A32.3672,32.3672,0,0,1,8.75809,24.1536,1.55186,1.55186,0,0,1,11.6636,25.245,29.26221,29.26221,0,1,0,66.44981,45.826a29.26614,29.26614,0,0,0-46.154-32.75361,1.55194,1.55194,0,1,1-1.98753-2.38406A32.36854,32.36854,0,1,1,39.02153,67.90289Z" fill="#3a2418"/><path d="M14.62064,35.00982a1.553,1.553,0,0,1-1.44366-.981l-3.10377-7.83188L2.18979,29.74754a1.552,1.552,0,0,1-1.2745-2.83032L10.28057,22.699a1.55238,1.55238,0,0,1,2.0803.84339l3.70221,9.34285a1.55355,1.55355,0,0,1-1.44244,2.12455Z" fill="#3a2418"/></g></svg>